<?xml version="1.0" encoding="UTF-8" standalone="no"?><svg xmlns="http://www.w3.org/2000/svg" xmlns:xlink="http://www.w3.org/1999/xlink" contentScriptType="text/ecmascript" fill="#000000" width="500" zoomAndPan="magnify" contentStyleType="text/css" viewBox="0.5 0.3 500.0 500.0" height="500" preserveAspectRatio="xMidYMid meet" version="1"><g id="change1_1"><path fill="#c0c0c0" d="M0.5 0.3H500.5V500.3H0.5z"/></g><g id="change2_1"><path fill="#ffffff" d="M475.5 12.8L24.8 12.8 13 12.8 13 24.7 13 475.3 24.8 475.3 24.8 24.7 475.5 24.7z"/></g><g id="change3_1"><path fill="#fdff00" d="M175.5,87.8v12.5H163V87.8H175.5z M188,100.3h-12.5v12.5H188V100.3z M163,112.8v12.5h12.5v-12.5H163z M200.5,125.3v-12.5H188v12.5H200.5z M350.5,112.8H338v12.5h12.5V112.8z M188,125.3h-12.5v12.5H188V125.3z M213,137.8v-12.5h-12.5 v12.5H213z M338,125.3h-12.5v12.5H338V125.3z M163,137.8v12.5h12.5v-12.5H163z M200.5,137.8H188v12.5h12.5V137.8z M225.5,150.3 v-12.5H213v12.5H225.5z M325.5,137.8H313v12.5h12.5V137.8z M350.5,150.3v-12.5H338v12.5H350.5z M188,150.3h-12.5v12.5H188V150.3z M213,162.8v-12.5h-12.5v12.5H213z M238,162.8v-12.5h-12.5v12.5H238z M313,150.3h-12.5v12.5H313V150.3z M325.5,162.8H338v-12.5 h-12.5V162.8z M163,162.8v12.5h12.5v-12.5H163z M200.5,162.8H188v12.5h12.5V162.8z M225.5,175.3v-12.5H213v12.5H225.5z M250.5,175.3 v-12.5H238v12.5H250.5z M300.5,162.8H288v12.5h12.5V162.8z M325.5,162.8H313v12.5h12.5V162.8z M350.5,175.3v-12.5H338v12.5H350.5z M188,175.3h-12.5v12.5H188V175.3z M213,175.3h-12.5v12.5H213V175.3z M238,187.8v-12.5h-12.5v12.5H238z M263,187.8v-12.5h-12.5v12.5 H263z M288,175.3h-12.5v12.5H288V175.3z M313,175.3h-12.5v12.5H313V175.3z M325.5,187.8H338v-12.5h-12.5V187.8z M163,187.8v12.5 h12.5v-12.5H163z M200.5,187.8H188v12.5h12.5V187.8z M225.5,200.3v-12.5H213v12.5H225.5z M250.5,200.3v-12.5H238v12.5H250.5z M275.5,200.3v-12.5H263v12.5H275.5z M300.5,187.8H288v12.5h12.5V187.8z M313,200.3h12.5v-12.5H313V200.3z M350.5,200.3v-12.5H338 v12.5H350.5z M188,200.3h-12.5v12.5H188V200.3z M213,200.3h-12.5v12.5H213V200.3z M238,212.8v-12.5h-12.5v12.5H238z M263,212.8 v-12.5h-12.5v12.5H263z M288,212.8v-12.5h-12.5v12.5H288z M313,200.3h-12.5v12.5H313V200.3z M325.5,212.8H338v-12.5h-12.5V212.8z M175.5,212.8H163v12.5h12.5V212.8z M200.5,212.8H188v12.5h12.5V212.8z M225.5,212.8H213v12.5h12.5V212.8z M250.5,225.3v-12.5H238 v12.5H250.5z M275.5,225.3v-12.5H263v12.5H275.5z M300.5,225.3v-12.5H288v12.5H300.5z M313,225.3h12.5v-12.5H313V225.3z M350.5,225.3v-12.5H338v12.5H350.5z M163,225.3h-12.5v12.5H163V225.3z M188,225.3h-12.5v12.5H188V225.3z M213,225.3h-12.5v12.5H213 V225.3z M238,237.8v-12.5h-12.5v12.5H238z M263,237.8v-12.5h-12.5v12.5H263z M288,237.8v-12.5h-12.5v12.5H288z M300.5,237.8H313 v-12.5h-12.5V237.8z M325.5,237.8H338v-12.5h-12.5V237.8z M150.5,237.8H138v12.5h12.5V237.8z M175.5,237.8H163v12.5h12.5V237.8z M200.5,237.8H188v12.5h12.5V237.8z M225.5,237.8H213v12.5h12.5V237.8z M238,237.8v12.5h12.5v-12.5H238z M263,237.8v12.5h12.5v-12.5 H263z M288,250.3h12.5v-12.5H288V250.3z M313,250.3h12.5v-12.5H313V250.3z M350.5,250.3v-12.5H338v12.5H350.5z M138,250.3h-12.5 v12.5H138V250.3z M163,250.3h-12.5v12.5H163V250.3z M175.5,250.3v12.5H188v-12.5H175.5z M200.5,250.3v12.5H213v-12.5H200.5z M225.5,250.3v12.5H238v-12.5H225.5z M250.5,250.3v12.5H263v-12.5H250.5z M275.5,250.3v12.5H288v-12.5H275.5z M300.5,262.8H313 v-12.5h-12.5V262.8z M338,262.8v-12.5h-12.5v12.5H338z M363,262.8v-12.5h-12.5v12.5H363z M125.5,262.8H113v12.5h12.5V262.8z M138,262.8v12.5h12.5v-12.5H138z M163,262.8v12.5h12.5v-12.5H163z M188,262.8v12.5h12.5v-12.5H188z M213,275.3h12.5v-12.5H213 V275.3z M238,262.8v12.5h12.5v-12.5H238z M263,262.8v12.5h12.5v-12.5H263z M288,262.8v12.5h12.5v-12.5H288z M313,262.8v12.5h12.5 v-12.5H313z M350.5,275.3v-12.5H338v12.5H350.5z M375.5,275.3v-12.5H363v12.5H375.5z M100.5,275.3v12.5H113v-12.5H100.5z M125.5,275.3v12.5H138v-12.5H125.5z M150.5,275.3v12.5H163v-12.5H150.5z M175.5,275.3v12.5H188v-12.5H175.5z M213,275.3h-12.5v12.5 H213V275.3z M225.5,287.8H238v-12.5h-12.5V287.8z M250.5,275.3v12.5H263v-12.5H250.5z M275.5,275.3v12.5H288v-12.5H275.5z M300.5,275.3v12.5H313v-12.5H300.5z M325.5,275.3v12.5H338v-12.5H325.5z M350.5,275.3v12.5H363v-12.5H350.5z M388,287.8v-12.5 h-12.5v12.5H388z M88,300.3h12.5v-12.5H88V300.3z M113,300.3h12.5v-12.5H113V300.3z M138,300.3h12.5v-12.5H138V300.3z M163,287.8 v12.5h12.5v-12.5H163z M200.5,287.8H188v12.5h12.5V287.8z M213,300.3h12.5v-12.5H213V300.3z M238,300.3h12.5v-12.5H238V300.3z M263,287.8v12.5h12.5v-12.5H263z M288,287.8v12.5h12.5v-12.5H288z M313,287.8v12.5h12.5v-12.5H313z M338,287.8v12.5h12.5v-12.5H338 z M363,287.8v12.5h12.5v-12.5H363z M388,287.8v12.5h12.5v-12.5H388z M188,300.3h-12.5v12.5H188V300.3z M200.5,312.8H213v-12.5h-12.5 V312.8z M225.5,312.8H238v-12.5h-12.5V312.8z M250.5,312.8H263v-12.5h-12.5V312.8z M275.5,312.8H288v-12.5h-12.5V312.8z M300.5,312.8H313v-12.5h-12.5V312.8z M325.5,312.8H338v-12.5h-12.5V312.8z M350.5,312.8H363v-12.5h-12.5V312.8z M375.5,312.8H388 v-12.5h-12.5V312.8z M400.5,300.3v12.5H413v-12.5H400.5z M163,312.8v12.5h12.5v-12.5H163z M200.5,312.8H188v12.5h12.5V312.8z M213,325.3h12.5v-12.5H213V325.3z M238,325.3h12.5v-12.5H238V325.3z M188,325.3h-12.5v12.5H188V325.3z M200.5,337.8H213v-12.5 h-12.5V337.8z M225.5,337.8H238v-12.5h-12.5V337.8z M163,337.8v12.5h12.5v-12.5H163z M188,350.3h12.5v-12.5H188V350.3z M213,350.3 h12.5v-12.5H213V350.3z M188,350.3h-12.5v12.5H188V350.3z M200.5,362.8H213v-12.5h-12.5V362.8z M163,362.8v12.5h12.5v-12.5H163z M188,375.3h12.5v-12.5H188V375.3z M175.5,387.8H188v-12.5h-12.5V387.8z M163,400.3h12.5v-12.5H163V400.3z"/></g><g id="change4_1"><path d="M488,0.3H13H0.5v12.5v475v12.5H488h12.5v-12.5V0.3H488z M488,487.8H13v-475h475V487.8z M163,100.3h-12.5V87.8V75.3V62.8H163 v12.5h12.5v12.5H163V100.3z M200.5,112.8H188v-12.5h12.5V112.8z M350.5,112.8H338v-12.5h12.5V87.8H363v12.5v12.5H350.5z M163,125.3 h-12.5v-12.5H163V125.3z M225.5,137.8H213v-12.5h12.5V137.8z M325.5,137.8H313v-12.5h12.5V137.8z M363,137.8h-12.5v-12.5H363V137.8z M163,150.3h-12.5v-12.5H163V150.3z M250.5,162.8H238v-12.5h12.5V162.8z M300.5,162.8H288v-12.5h12.5V162.8z M350.5,150.3H363v12.5 h-12.5V150.3z M163,175.3h-12.5v-12.5H163V175.3z M275.5,187.8H263v-12.5h12.5V187.8z M350.5,175.3H363v12.5h-12.5V175.3z M163,200.3h-12.5v-12.5H163V200.3z M350.5,200.3H363v12.5h-12.5V200.3z M163,225.3h-12.5v-12.5H163V225.3z M350.5,225.3H363v12.5 v12.5h-12.5v-12.5V225.3z M138,250.3h-12.5v-12.5H138V250.3z M113,275.3h-12.5v-12.5H113V275.3z M388,275.3h-12.5v-12.5H388V275.3z M413,300.3h-12.5v-12.5H413V300.3z M75.5,312.8H63v-12.5h12.5v-12.5H88v12.5h12.5v12.5H88H75.5z M113,300.3h12.5v12.5H113V300.3z M138,300.3h12.5H163v12.5v12.5h-12.5v-12.5H138V300.3z M275.5,325.3H263v-12.5h12.5V325.3z M300.5,325.3H288v-12.5h12.5V325.3z M325.5,325.3H313v-12.5h12.5V325.3z M350.5,325.3H338v-12.5h12.5V325.3z M363,312.8h12.5v12.5H363V312.8z M388,312.8h12.5v12.5H388 V312.8z M413,312.8v-12.5h12.5v12.5H438v12.5h-12.5H413V312.8z M163,350.3h-12.5v-12.5H163V350.3z M250.5,350.3H238v-12.5h12.5 V350.3z M150.5,362.8H163v12.5h-12.5V362.8z M225.5,375.3H213v-12.5h12.5V375.3z M150.5,387.8H163v12.5h-12.5V387.8z M200.5,400.3 H188v-12.5h12.5V400.3z M163,412.8h12.5v12.5H163v12.5h-12.5v-12.5v-12.5H163z"/></g><g id="change4_2"><path opacity="0.3" d="M488,12.8v462.5v12.5h-12.5H13v-12.5h462.5V12.8H488z M163,412.8h12.5v-12.5H163V412.8z M175.5,400.3H188v-12.5 h-12.5V400.3z M188,387.8h12.5v-12.5H188V387.8z M200.5,375.3H213v-12.5h-12.5V375.3z M213,362.8h12.5v-12.5H213V362.8z M225.5,350.3H238v-12.5h-12.5V350.3z M238,337.8h12.5v-12.5H238V337.8z M250.5,325.3H263v-12.5h-12.5V325.3z M263,312.8h150v-12.5 H263V312.8z M100.5,287.8H88v12.5h12.5V287.8z M113,275.3h-12.5v12.5H113V275.3z M125.5,262.8H113v12.5h12.5V262.8z M138,250.3 h-12.5v12.5H138V250.3z M150.5,237.8H138v12.5h12.5V237.8z M163,225.3h-12.5v12.5H163V225.3z M175.5,87.8H163v12.5h12.5V87.8z M188,112.8v-12.5h-12.5v12.5H188z M200.5,125.3v-12.5H188v12.5H200.5z M213,137.8v-12.5h-12.5v12.5H213z M225.5,150.3v-12.5H213 v12.5H225.5z M238,162.8v-12.5h-12.5v12.5H238z M250.5,175.3v-12.5H238v12.5H250.5z M263,187.8v-12.5h-12.5v12.5H263z"/></g></svg>