<?xml version="1.0" encoding="UTF-8" standalone="no"?><svg xmlns="http://www.w3.org/2000/svg" xmlns:xlink="http://www.w3.org/1999/xlink" contentScriptType="text/ecmascript" fill="#000000" width="46.7" zoomAndPan="magnify" contentStyleType="text/css" viewBox="0.0 0.0 46.7 46.9" height="46.9" preserveAspectRatio="xMidYMid meet" version="1"><g fill="#000000" id="change1_1"><path fill="inherit" d="M15,0H0v15c0,3.6,2.9,6.5,6.5,6.5h15v-15C21.5,2.9,18.6,0,15,0z"/><path fill="inherit" d="M31.6,0c-3.6,0-6.5,2.9-6.5,6.5v15h15c3.6,0,6.5-2.9,6.5-6.5V0H31.6z"/><path fill="inherit" d="M40.2,25.4h-15v15c0,3.6,2.9,6.5,6.5,6.5h15v-15C46.6,28.3,43.7,25.4,40.2,25.4z"/><path fill="inherit" d="M0,31.9v15h15c3.6,0,6.5-2.9,6.5-6.5v-15h-15C2.9,25.4,0,28.3,0,31.9z"/></g></svg>