<?xml version="1.0" encoding="UTF-8" standalone="no"?><svg xmlns="http://www.w3.org/2000/svg" xmlns:xlink="http://www.w3.org/1999/xlink" contentScriptType="text/ecmascript" fill="#000000" width="54.9" zoomAndPan="magnify" contentStyleType="text/css" viewBox="0.0 0.0 54.9 54.5" height="54.5" preserveAspectRatio="xMidYMid meet" version="1"><g><g fill="#000000" id="change1_1"><path fill="inherit" d="M42.1,27.8h12.8c-0.1,4.1-1,8-2.7,11.5H40.7C41.6,35.7,42.1,31.8,42.1,27.8z"/><path fill="inherit" d="M40.5,40.2h11.2c-4.1,7.7-11.9,13.2-21,14.3C34.9,52.7,38.5,47.4,40.5,40.2z"/><path fill="inherit" d="M41.1,26.8H27.9V14.8h11.7C40.6,18.4,41.1,22.5,41.1,26.8z"/><path fill="inherit" d="M39.7,39.2H27.9V27.8h13.2C41.1,31.9,40.6,35.8,39.7,39.2z"/><path fill="inherit" d="M27.9,54.2v-14h11.5C37.2,48.3,32.9,53.8,27.9,54.2z"/><path fill="inherit" d="M39.3,13.8H27.9V0.3C32.8,0.7,37,6,39.3,13.8z"/><path fill="inherit" d="M15.4,40.2h11.5v14C22,53.8,17.7,48.3,15.4,40.2z"/><path fill="inherit" d="M15.3,14.8h11.6v11.9H13.8C13.8,22.5,14.3,18.4,15.3,14.8z"/><path fill="inherit" d="M26.9,0.3v13.5H15.6C17.9,6,22.1,0.7,26.9,0.3z"/><path fill="inherit" d="M13.8,27.8h13.2v11.5H15.2C14.3,35.8,13.8,31.9,13.8,27.8z"/><path fill="inherit" d="M14.6,13.8H3.5C7.7,6.3,15.3,1,24.2,0C20.1,1.8,16.6,6.9,14.6,13.8z"/><path fill="inherit" d="M24.2,54.5c-9.1-1.1-16.8-6.6-21-14.3h11.2C16.4,47.4,19.9,52.7,24.2,54.5z"/><path fill="inherit" d="M14.2,39.2H2.7C1,35.8,0.1,31.9,0,27.8h12.8C12.8,31.8,13.3,35.7,14.2,39.2z"/><path fill="inherit" d="M12.8,26.8H0c0.1-4.3,1.1-8.3,3-11.9h11.3C13.3,18.4,12.8,22.5,12.8,26.8z"/><path fill="inherit" d="M42.1,26.8c0-4.3-0.6-8.3-1.5-11.9h11.3c1.8,3.6,2.9,7.6,3,11.9H42.1z"/><path fill="inherit" d="M51.4,13.8H40.3c-2-6.9-5.5-12-9.6-13.8C39.6,1,47.2,6.3,51.4,13.8z"/></g></g></svg>