<?xml version="1.0" encoding="UTF-8" standalone="no"?><svg xmlns="http://www.w3.org/2000/svg" xmlns:xlink="http://www.w3.org/1999/xlink" contentScriptType="text/ecmascript" fill="#000000" width="500" zoomAndPan="magnify" contentStyleType="text/css" viewBox="0.0 -0.0 500.0 482.8" height="482.8" preserveAspectRatio="xMidYMid meet" version="1"><g><g id="change1_1"><path opacity="0.3" d="M465.5171509 68.9653015L465.5171509 51.7240868 448.2756958 51.7240868 448.2756958 34.4826317 431.0344849 34.4826317 431.0344849 17.2411766 413.7930298 17.2411766 396.5515747 17.2411766 379.3103638 17.2411766 362.0689087 17.2411766 344.8274536 17.2411766 327.5862427 17.2411766 310.3447876 17.2411766 293.1033325 17.2411766 275.8621216 17.2411766 258.6206665 17.2411766 241.3792114 17.2411766 224.1380005 17.2411766 206.8965454 17.2411766 189.6550903 17.2411766 172.4137573 17.2411766 155.1724243 17.2411766 137.9309692 17.2411766 120.6896362 17.2411766 103.4483032 17.2411766 86.2068481 17.2411766 68.9655151 17.2411766 51.7241783 17.2411766 51.7241783 34.4826317 34.4827232 34.4826317 34.4827232 51.7240868 17.2413921 51.7240868 17.2413921 68.9653015 17.2413921 68.9653015 0.0000589 68.9653015 0.0000589 86.2067566 0.0000589 103.4482117 0.0000589 120.6894226 0.0000589 137.9308777 0.0000589 155.1723328 0.0000589 172.4135437 0.0000589 189.6549988 0.0000589 206.8964539 0.0000589 224.1376648 0.0000589 241.3791199 0.0000589 258.620575 0.0000589 275.86203 0.0000589 293.103241 0.0000589 310.344696 0.0000589 327.5861511 0.0000589 344.8276062 17.2413921 344.8276062 17.2413921 344.8276062 17.2413921 362.0688171 34.4827232 362.0688171 34.4827232 379.3102722 51.7241783 379.3102722 51.7241783 396.5517273 68.9655151 396.5517273 86.2068481 396.5517273 103.4483032 396.5517273 103.4483032 413.7929382 120.6896362 413.7929382 120.6896362 431.0343933 137.9309692 431.0343933 137.9309692 431.0343933 137.9309692 431.0343933 137.9309692 448.2758484 155.1724243 448.2758484 155.1724243 448.2758484 155.1724243 465.5170593 172.4137573 465.5170593 172.4137573 482.7585144 189.6550903 482.7585144 189.6550903 465.5170593 189.6550903 448.2758484 189.6550903 431.0343933 189.6550903 413.7929382 189.6550903 396.5517273 206.8965454 396.5517273 224.1380005 396.5517273 241.3792114 396.5517273 258.6206665 396.5517273 275.8621216 396.5517273 293.1033325 396.5517273 310.3447876 396.5517273 327.5862427 396.5517273 344.8274536 396.5517273 362.0689087 396.5517273 379.3103638 396.5517273 396.5515747 396.5517273 413.7930298 396.5517273 431.0344849 396.5517273 431.0344849 379.3102722 431.0344849 379.3102722 448.2756958 379.3102722 448.2756958 362.0688171 465.5171509 362.0688171 465.5171509 344.8276062 482.758606 344.8276062 482.758606 327.5861511 482.758606 310.344696 482.758606 293.103241 482.758606 275.86203 482.758606 258.620575 482.758606 241.3791199 482.758606 224.1376648 482.758606 206.8964539 482.758606 189.6549988 482.758606 172.4135437 482.758606 155.1723328 482.758606 137.9308777 482.758606 120.6894226 482.758606 103.4482117 482.758606 86.2067566 482.758606 68.9653015z"/></g><g id="change1_2"><path d="M482.7585449 51.7240372L482.7585449 34.4828262 465.5170898 34.4828262 465.5170898 17.2413712 448.2758789 17.2413712 448.2758789 -0.0000842 431.0344238 -0.0000842 413.7929688 -0.0000842 396.5517578 -0.0000842 379.3103027 -0.0000842 362.0688477 -0.0000842 344.8276367 -0.0000842 327.5861816 -0.0000842 310.3447266 -0.0000842 293.1035156 -0.0000842 275.8620605 -0.0000842 258.6206055 -0.0000842 241.3793945 -0.0000842 224.1379395 -0.0000842 206.8964844 -0.0000842 189.6551514 -0.0000842 172.4138184 -0.0000842 155.1723633 -0.0000842 137.9310303 -0.0000842 120.6896973 -0.0000842 103.4482422 -0.0000842 86.2069092 -0.0000842 68.9655762 -0.0000842 68.9655762 17.2413712 51.7241211 17.2413712 51.7241211 34.4828262 34.4827881 34.4828262 34.4827881 51.7240372 34.4827881 51.7240372 17.2414551 51.7240372 17.2414551 68.9654922 17.2414551 86.2069473 17.2414551 103.4481583 17.2414551 120.6896133 17.2414551 137.9310608 17.2414551 155.1722717 17.2414551 172.4137268 17.2414551 189.6551819 17.2414551 206.8963928 17.2414551 224.1378479 17.2414551 241.379303 17.2414551 258.6207581 17.2414551 275.861969 17.2414551 293.1034241 17.2414551 310.3448792 17.2414551 327.5863342 34.4827881 327.5863342 34.4827881 327.5863342 34.4827881 344.8275452 51.7241211 344.8275452 51.7241211 362.0690002 68.9655762 362.0690002 68.9655762 379.3104553 86.2069092 379.3104553 103.4482422 379.3104553 120.6896973 379.3104553 120.6896973 396.5516663 137.9310303 396.5516663 137.9310303 413.7931213 155.1723633 413.7931213 155.1723633 413.7931213 155.1723633 413.7931213 155.1723633 431.0345764 172.4138184 431.0345764 172.4138184 431.0345764 172.4138184 448.2757874 189.6551514 448.2757874 189.6551514 465.5172424 206.8964844 465.5172424 206.8964844 448.2757874 206.8964844 431.0345764 206.8964844 413.7931213 206.8964844 396.5516663 206.8964844 379.3104553 224.1379395 379.3104553 241.3793945 379.3104553 258.6206055 379.3104553 275.8620605 379.3104553 293.1035156 379.3104553 310.3447266 379.3104553 327.5861816 379.3104553 344.8276367 379.3104553 362.0688477 379.3104553 379.3103027 379.3104553 396.5517578 379.3104553 413.7929688 379.3104553 431.0344238 379.3104553 448.2758789 379.3104553 448.2758789 362.0690002 448.2758789 362.0690002 465.5170898 362.0690002 465.5170898 344.8275452 482.7585449 344.8275452 482.7585449 327.5863342 500 327.5863342 500 310.3448792 500 293.1034241 500 275.861969 500 258.6207581 500 241.379303 500 224.1378479 500 206.8963928 500 189.6551819 500 172.4137268 500 155.1722717 500 137.9310608 500 120.6896133 500 103.4481583 500 86.2069473 500 68.9654922 500 51.7240372z"/></g><g id="change2_1"><path fill="#f0f4a7" d="M465.5170898 51.7240372L465.5170898 34.4828262 448.2758789 34.4828262 448.2758789 17.2413712 431.0344238 17.2413712 413.7929688 17.2413712 396.5517578 17.2413712 379.3103027 17.2413712 362.0688477 17.2413712 344.8276367 17.2413712 327.5861816 17.2413712 310.3447266 17.2413712 293.1035156 17.2413712 275.8620605 17.2413712 258.6206055 17.2413712 241.3793945 17.2413712 224.1379395 17.2413712 206.8964844 17.2413712 189.6551514 17.2413712 172.4138184 17.2413712 155.1723633 17.2413712 137.9310303 17.2413712 120.6896973 17.2413712 103.4482422 17.2413712 86.2069092 17.2413712 68.9655762 17.2413712 68.9655762 34.4828262 51.7241211 34.4828262 51.7241211 51.7240372 34.4827881 51.7240372 34.4827881 68.9654922 34.4827881 86.2069473 34.4827881 103.4481583 34.4827881 120.6896133 34.4827881 137.9310608 34.4827881 155.1722717 34.4827881 172.4137268 34.4827881 189.6551819 34.4827881 206.8963928 34.4827881 224.1378479 34.4827881 241.379303 34.4827881 258.6207581 34.4827881 275.861969 34.4827881 293.1034241 34.4827881 310.3448792 34.4827881 327.5863342 51.7241211 327.5863342 51.7241211 344.8275452 68.9655762 344.8275452 68.9655762 362.0690002 86.2069092 362.0690002 103.4482422 362.0690002 120.6896973 362.0690002 120.6896973 379.3104553 137.9310303 379.3104553 137.9310303 396.5516663 155.1723633 396.5516663 155.1723633 413.7931213 172.4138184 413.7931213 172.4138184 431.0345764 189.6551514 431.0345764 189.6551514 413.7931213 189.6551514 396.5516663 189.6551514 379.3104553 189.6551514 362.0690002 206.8964844 362.0690002 224.1379395 362.0690002 241.3793945 362.0690002 258.6206055 362.0690002 275.8620605 362.0690002 293.1035156 362.0690002 310.3447266 362.0690002 327.5861816 362.0690002 344.8276367 362.0690002 362.0688477 362.0690002 379.3103027 362.0690002 396.5517578 362.0690002 413.7929688 362.0690002 431.0344238 362.0690002 448.2758789 362.0690002 448.2758789 344.8275452 465.5170898 344.8275452 465.5170898 327.5863342 482.7585449 327.5863342 482.7585449 310.3448792 482.7585449 293.1034241 482.7585449 275.861969 482.7585449 258.6207581 482.7585449 241.379303 482.7585449 224.1378479 482.7585449 206.8963928 482.7585449 189.6551819 482.7585449 172.4137268 482.7585449 155.1722717 482.7585449 137.9310608 482.7585449 120.6896133 482.7585449 103.4481583 482.7585449 86.2069473 482.7585449 68.9654922 482.7585449 51.7240372z"/></g><g id="change3_1"><path fill="#000000" d="M258.620697,172.4137878h17.2413635v17.2413788v17.2413788H258.620697h-17.241394v-17.2413788v-17.2413788 H258.620697z M120.6896515,172.4137878v17.2413788v17.2413788h17.2413788h17.2413788v-17.2413788v-17.2413788h-17.2413788 H120.6896515z M379.3103333,172.4137878h-17.2413635v17.2413788v17.2413788h17.2413635h17.241394v-17.2413788v-17.2413788 H379.3103333z"/></g><g id="change4_1"><path fill="#ffffff" opacity="0.2" d="M86.2068939,17.2413788v17.2413788h17.2413788V17.2413788H86.2068939z M68.9655151,34.4827576v17.2413788h17.2413788V34.4827576H68.9655151z M103.4482727,34.4827576v17.2413788h17.2413788V34.4827576 H103.4482727z M120.6896515,17.2413788v17.2413788h17.2413788V17.2413788H120.6896515z M137.9310303,34.4827576v17.2413788 h17.2413788V34.4827576H137.9310303z M155.1724091,17.2413788v17.2413788h17.2413788V17.2413788H155.1724091z M172.4137878,34.4827576v17.2413788h17.2413788V34.4827576H172.4137878z M189.6551666,17.2413788v17.2413788h17.2413788 V17.2413788H189.6551666z M206.8965454,34.4827576v17.2413788h17.2413788V34.4827576H206.8965454z M86.2068939,51.7241364 v17.2413788h17.2413788V51.7241364H86.2068939z M68.9655151,68.9655151v17.2413788h17.2413788V68.9655151H68.9655151z M51.7241364,51.7241364v17.2413788h17.2413788V51.7241364H51.7241364z M103.4482727,68.9655151v17.2413788h17.2413788V68.9655151 H103.4482727z M120.6896515,51.7241364v17.2413788h17.2413788V51.7241364H120.6896515z M137.9310303,68.9655151v17.2413788 h17.2413788V68.9655151H137.9310303z M155.1724091,51.7241364v17.2413788h17.2413788V51.7241364H155.1724091z M172.4137878,68.9655151v17.2413788h17.2413788V68.9655151H172.4137878z M189.6551666,51.7241364v17.2413788h17.2413788 V51.7241364H189.6551666z M206.8965454,68.9655151v17.2413788h17.2413788V68.9655151H206.8965454z M34.4827576,68.9655151 v17.2413788h17.2413788V68.9655151H34.4827576z M86.2068939,86.2068939v17.2413788h17.2413788V86.2068939H86.2068939z M68.9655151,103.4482727v17.2413788h17.2413788v-17.2413788H68.9655151z M51.7241364,86.2068939v17.2413788h17.2413788V86.2068939 H51.7241364z M103.4482727,103.4482727v17.2413788h17.2413788v-17.2413788H103.4482727z M120.6896515,86.2068939v17.2413788 h17.2413788V86.2068939H120.6896515z M137.9310303,103.4482727v17.2413788h17.2413788v-17.2413788H137.9310303z M155.1724091,86.2068939v17.2413788h17.2413788V86.2068939H155.1724091z M172.4137878,103.4482727v17.2413788h17.2413788 v-17.2413788H172.4137878z M189.6551666,86.2068939v17.2413788h17.2413788V86.2068939H189.6551666z M206.8965454,103.4482727 v17.2413788h17.2413788v-17.2413788H206.8965454z M34.4827576,103.4482727v17.2413788h17.2413788v-17.2413788H34.4827576z M86.2068939,120.6896515v17.2413788h17.2413788v-17.2413788H86.2068939z M68.9655151,137.9310303v17.2413788h17.2413788 v-17.2413788H68.9655151z M51.7241364,120.6896515v17.2413788h17.2413788v-17.2413788H51.7241364z M103.4482727,137.9310303 v17.2413788h17.2413788v-17.2413788H103.4482727z M120.6896515,120.6896515v17.2413788h17.2413788v-17.2413788H120.6896515z M137.9310303,137.9310303v17.2413788h17.2413788v-17.2413788H137.9310303z M155.1724091,120.6896515v17.2413788h17.2413788 v-17.2413788H155.1724091z M172.4137878,137.9310303v17.2413788h17.2413788v-17.2413788H172.4137878z M189.6551666,120.6896515 v17.2413788h17.2413788v-17.2413788H189.6551666z M206.8965454,137.9310303v17.2413788h17.2413788v-17.2413788H206.8965454z M34.4827576,137.9310303v17.2413788h17.2413788v-17.2413788H34.4827576z M86.2068939,155.1724091v17.2413788h17.2413788 v-17.2413788H86.2068939z M68.9655151,172.4137878v17.2413788h17.2413788v-17.2413788H68.9655151z M51.7241364,155.1724091 v17.2413788h17.2413788v-17.2413788H51.7241364z M103.4482727,172.4137878v17.2413788h17.2413788v-17.2413788H103.4482727z M120.6896515,155.1724091v17.2413788h17.2413788v-17.2413788H120.6896515z M137.9310303,172.4137878v17.2413788h17.2413788 v-17.2413788H137.9310303z M155.1724091,155.1724091v17.2413788h17.2413788v-17.2413788H155.1724091z M172.4137878,172.4137878 v17.2413788h17.2413788v-17.2413788H172.4137878z M189.6551666,155.1724091v17.2413788h17.2413788v-17.2413788H189.6551666z M206.8965454,172.4137878v17.2413788h17.2413788v-17.2413788H206.8965454z M34.4827576,172.4137878v17.2413788h17.2413788 v-17.2413788H34.4827576z M86.2068939,189.6551666v17.2413788h17.2413788v-17.2413788H86.2068939z M68.9655151,206.8965454 v17.2413788h17.2413788v-17.2413788H68.9655151z M51.7241364,189.6551666v17.2413788h17.2413788v-17.2413788H51.7241364z M103.4482727,206.8965454v17.2413788h17.2413788v-17.2413788H103.4482727z M120.6896515,189.6551666v17.2413788h17.2413788 v-17.2413788H120.6896515z M137.9310303,206.8965454v17.2413788h17.2413788v-17.2413788H137.9310303z M155.1724091,189.6551666 v17.2413788h17.2413788v-17.2413788H155.1724091z M172.4137878,206.8965454v17.2413788h17.2413788v-17.2413788H172.4137878z M189.6551666,189.6551666v17.2413788h17.2413788v-17.2413788H189.6551666z M206.8965454,206.8965454v17.2413788h17.2413788 v-17.2413788H206.8965454z M34.4827576,206.8965454v17.2413788h17.2413788v-17.2413788H34.4827576z M86.2068939,224.1379242 v17.2413788h17.2413788v-17.2413788H86.2068939z M68.9655151,241.379303v17.241394h17.2413788v-17.241394H68.9655151z M51.7241364,224.1379242v17.2413788h17.2413788v-17.2413788H51.7241364z M103.4482727,241.379303v17.241394h17.2413788v-17.241394 H103.4482727z M120.6896515,224.1379242v17.2413788h17.2413788v-17.2413788H120.6896515z M137.9310303,241.379303v17.241394 h17.2413788v-17.241394H137.9310303z M155.1724091,224.1379242v17.2413788h17.2413788v-17.2413788H155.1724091z M172.4137878,241.379303v17.241394h17.2413788v-17.241394H172.4137878z M189.6551666,224.1379242v17.2413788h17.2413788 v-17.2413788H189.6551666z M206.8965454,241.379303v17.241394h17.2413788v-17.241394H206.8965454z M34.4827576,241.379303 v17.241394h17.2413788v-17.241394H34.4827576z M86.2068939,258.620697v17.2413635h17.2413788V258.620697H86.2068939z M68.9655151,275.8620605v17.241394h17.2413788v-17.241394H68.9655151z M51.7241364,258.620697v17.2413635h17.2413788V258.620697 H51.7241364z M103.4482727,275.8620605v17.241394h17.2413788v-17.241394H103.4482727z M120.6896515,258.620697v17.2413635 h17.2413788V258.620697H120.6896515z M137.9310303,275.8620605v17.241394h17.2413788v-17.241394H137.9310303z M155.1724091,258.620697v17.2413635h17.2413788V258.620697H155.1724091z M172.4137878,275.8620605v17.241394h17.2413788 v-17.241394H172.4137878z M189.6551666,258.620697v17.2413635h17.2413788V258.620697H189.6551666z M206.8965454,275.8620605 v17.241394h17.2413788v-17.241394H206.8965454z M34.4827576,275.8620605v17.241394h17.2413788v-17.241394H34.4827576z M86.2068939,293.1034546v17.2413635h17.2413788v-17.2413635H86.2068939z M68.9655151,310.3448181v17.241394h17.2413788v-17.241394 H68.9655151z M51.7241364,293.1034546v17.2413635h17.2413788v-17.2413635H51.7241364z M103.4482727,310.3448181v17.241394 h17.2413788v-17.241394H103.4482727z M120.6896515,293.1034546v17.2413635h17.2413788v-17.2413635H120.6896515z M137.9310303,310.3448181v17.241394h17.2413788v-17.241394H137.9310303z M155.1724091,293.1034546v17.2413635h17.2413788 v-17.2413635H155.1724091z M172.4137878,310.3448181v17.241394h17.2413788v-17.241394H172.4137878z M189.6551666,293.1034546 v17.2413635h17.2413788v-17.2413635H189.6551666z M206.8965454,310.3448181v17.241394h17.2413788v-17.241394H206.8965454z M34.4827576,310.3448181v17.241394h17.2413788v-17.241394H34.4827576z M86.2068939,327.5862122v17.2413635h17.2413788v-17.2413635 H86.2068939z M68.9655151,344.8275757v17.241394h17.2413788v-17.241394H68.9655151z M51.7241364,327.5862122v17.2413635h17.2413788 v-17.2413635H51.7241364z M103.4482727,344.8275757v17.241394h17.2413788v-17.241394H103.4482727z M120.6896515,327.5862122 v17.2413635h17.2413788v-17.2413635H120.6896515z M137.9310303,344.8275757v17.241394h17.2413788v-17.241394H137.9310303z M155.1724091,327.5862122v17.2413635h17.2413788v-17.2413635H155.1724091z M172.4137878,344.8275757v17.241394h17.2413788 v-17.241394H172.4137878z M120.6896515,362.0689697v17.2413635h17.2413788v-17.2413635H120.6896515z M137.9310303,379.3103333 v17.241394h17.2413788v-17.241394H137.9310303z M155.1724091,362.0689697v17.2413635h17.2413788v-17.2413635H155.1724091z M172.4137878,379.3103333v17.241394h17.2413788v-17.241394H172.4137878z M155.1724091,396.5517273v17.2413635h17.2413788 v-17.2413635H155.1724091z M172.4137878,413.7930908v17.241394h17.2413788v-17.241394H172.4137878z M189.6551666,327.5862122 v17.2413635h17.2413788v-17.2413635H189.6551666z M206.8965454,344.8275757v17.241394h17.2413788v-17.241394H206.8965454z M224.1379242,17.2413788v17.2413788h17.2413788V17.2413788H224.1379242z M241.379303,34.4827576v17.2413788h17.241394V34.4827576 H241.379303z M224.1379242,51.7241364v17.2413788h17.2413788V51.7241364H224.1379242z M241.379303,68.9655151v17.2413788h17.241394 V68.9655151H241.379303z M224.1379242,86.2068939v17.2413788h17.2413788V86.2068939H224.1379242z M241.379303,103.4482727 v17.2413788h17.241394v-17.2413788H241.379303z M224.1379242,120.6896515v17.2413788h17.2413788v-17.2413788H224.1379242z M241.379303,137.9310303v17.2413788h17.241394v-17.2413788H241.379303z M224.1379242,155.1724091v17.2413788h17.2413788 v-17.2413788H224.1379242z M241.379303,172.4137878v17.2413788h17.241394v-17.2413788H241.379303z M224.1379242,189.6551666 v17.2413788h17.2413788v-17.2413788H224.1379242z M241.379303,206.8965454v17.2413788h17.241394v-17.2413788H241.379303z M224.1379242,224.1379242v17.2413788h17.2413788v-17.2413788H224.1379242z M241.379303,241.379303v17.241394h17.241394v-17.241394 H241.379303z M224.1379242,258.620697v17.2413635h17.2413788V258.620697H224.1379242z M241.379303,275.8620605v17.241394h17.241394 v-17.241394H241.379303z M224.1379242,293.1034546v17.2413635h17.2413788v-17.2413635H224.1379242z M241.379303,310.3448181 v17.241394h17.241394v-17.241394H241.379303z M224.1379242,327.5862122v17.2413635h17.2413788v-17.2413635H224.1379242z M241.379303,344.8275757v17.241394h17.241394v-17.241394H241.379303z M258.620697,17.2413788v17.2413788h17.2413635V17.2413788 H258.620697z M275.8620605,34.4827576v17.2413788h17.241394V34.4827576H275.8620605z M258.620697,51.7241364v17.2413788h17.2413635 V51.7241364H258.620697z M275.8620605,68.9655151v17.2413788h17.241394V68.9655151H275.8620605z M258.620697,86.2068939v17.2413788 h17.2413635V86.2068939H258.620697z M275.8620605,103.4482727v17.2413788h17.241394v-17.2413788H275.8620605z M258.620697,120.6896515v17.2413788h17.2413635v-17.2413788H258.620697z M275.8620605,137.9310303v17.2413788h17.241394 v-17.2413788H275.8620605z M258.620697,155.1724091v17.2413788h17.2413635v-17.2413788H258.620697z M275.8620605,172.4137878 v17.2413788h17.241394v-17.2413788H275.8620605z M258.620697,189.6551666v17.2413788h17.2413635v-17.2413788H258.620697z M275.8620605,206.8965454v17.2413788h17.241394v-17.2413788H275.8620605z M258.620697,224.1379242v17.2413788h17.2413635 v-17.2413788H258.620697z M275.8620605,241.379303v17.241394h17.241394v-17.241394H275.8620605z M258.620697,258.620697v17.2413635 h17.2413635V258.620697H258.620697z M275.8620605,275.8620605v17.241394h17.241394v-17.241394H275.8620605z M258.620697,293.1034546v17.2413635h17.2413635v-17.2413635H258.620697z M275.8620605,310.3448181v17.241394h17.241394v-17.241394 H275.8620605z M258.620697,327.5862122v17.2413635h17.2413635v-17.2413635H258.620697z M275.8620605,344.8275757v17.241394 h17.241394v-17.241394H275.8620605z M293.1034546,17.2413788v17.2413788h17.2413635V17.2413788H293.1034546z M310.3448181,34.4827576v17.2413788h17.241394V34.4827576H310.3448181z M293.1034546,51.7241364v17.2413788h17.2413635V51.7241364 H293.1034546z M310.3448181,68.9655151v17.2413788h17.241394V68.9655151H310.3448181z M293.1034546,86.2068939v17.2413788 h17.2413635V86.2068939H293.1034546z M310.3448181,103.4482727v17.2413788h17.241394v-17.2413788H310.3448181z M293.1034546,120.6896515v17.2413788h17.2413635v-17.2413788H293.1034546z M310.3448181,137.9310303v17.2413788h17.241394 v-17.2413788H310.3448181z M293.1034546,155.1724091v17.2413788h17.2413635v-17.2413788H293.1034546z M310.3448181,172.4137878 v17.2413788h17.241394v-17.2413788H310.3448181z M293.1034546,189.6551666v17.2413788h17.2413635v-17.2413788H293.1034546z M310.3448181,206.8965454v17.2413788h17.241394v-17.2413788H310.3448181z M293.1034546,224.1379242v17.2413788h17.2413635 v-17.2413788H293.1034546z M310.3448181,241.379303v17.241394h17.241394v-17.241394H310.3448181z M293.1034546,258.620697 v17.2413635h17.2413635V258.620697H293.1034546z M310.3448181,275.8620605v17.241394h17.241394v-17.241394H310.3448181z M293.1034546,293.1034546v17.2413635h17.2413635v-17.2413635H293.1034546z M310.3448181,310.3448181v17.241394h17.241394 v-17.241394H310.3448181z M293.1034546,327.5862122v17.2413635h17.2413635v-17.2413635H293.1034546z M310.3448181,344.8275757 v17.241394h17.241394v-17.241394H310.3448181z M327.5862122,17.2413788v17.2413788h17.2413635V17.2413788H327.5862122z M344.8275757,34.4827576v17.2413788h17.241394V34.4827576H344.8275757z M327.5862122,51.7241364v17.2413788h17.2413635V51.7241364 H327.5862122z M344.8275757,68.9655151v17.2413788h17.241394V68.9655151H344.8275757z M327.5862122,86.2068939v17.2413788 h17.2413635V86.2068939H327.5862122z M344.8275757,103.4482727v17.2413788h17.241394v-17.2413788H344.8275757z M327.5862122,120.6896515v17.2413788h17.2413635v-17.2413788H327.5862122z M344.8275757,137.9310303v17.2413788h17.241394 v-17.2413788H344.8275757z M327.5862122,155.1724091v17.2413788h17.2413635v-17.2413788H327.5862122z M344.8275757,172.4137878 v17.2413788h17.241394v-17.2413788H344.8275757z M327.5862122,189.6551666v17.2413788h17.2413635v-17.2413788H327.5862122z M344.8275757,206.8965454v17.2413788h17.241394v-17.2413788H344.8275757z M327.5862122,224.1379242v17.2413788h17.2413635 v-17.2413788H327.5862122z M344.8275757,241.379303v17.241394h17.241394v-17.241394H344.8275757z M327.5862122,258.620697 v17.2413635h17.2413635V258.620697H327.5862122z M344.8275757,275.8620605v17.241394h17.241394v-17.241394H344.8275757z M327.5862122,293.1034546v17.2413635h17.2413635v-17.2413635H327.5862122z M344.8275757,310.3448181v17.241394h17.241394 v-17.241394H344.8275757z M327.5862122,327.5862122v17.2413635h17.2413635v-17.2413635H327.5862122z M344.8275757,344.8275757 v17.241394h17.241394v-17.241394H344.8275757z M362.0689697,17.2413788v17.2413788h17.2413635V17.2413788H362.0689697z M379.3103333,34.4827576v17.2413788h17.241394V34.4827576H379.3103333z M362.0689697,51.7241364v17.2413788h17.2413635V51.7241364 H362.0689697z M379.3103333,68.9655151v17.2413788h17.241394V68.9655151H379.3103333z M362.0689697,86.2068939v17.2413788 h17.2413635V86.2068939H362.0689697z M379.3103333,103.4482727v17.2413788h17.241394v-17.2413788H379.3103333z M362.0689697,120.6896515v17.2413788h17.2413635v-17.2413788H362.0689697z M379.3103333,137.9310303v17.2413788h17.241394 v-17.2413788H379.3103333z M362.0689697,155.1724091v17.2413788h17.2413635v-17.2413788H362.0689697z M379.3103333,172.4137878 v17.2413788h17.241394v-17.2413788H379.3103333z M362.0689697,189.6551666v17.2413788h17.2413635v-17.2413788H362.0689697z M379.3103333,206.8965454v17.2413788h17.241394v-17.2413788H379.3103333z M362.0689697,224.1379242v17.2413788h17.2413635 v-17.2413788H362.0689697z M379.3103333,241.379303v17.241394h17.241394v-17.241394H379.3103333z M362.0689697,258.620697 v17.2413635h17.2413635V258.620697H362.0689697z M379.3103333,275.8620605v17.241394h17.241394v-17.241394H379.3103333z M362.0689697,293.1034546v17.2413635h17.2413635v-17.2413635H362.0689697z M379.3103333,310.3448181v17.241394h17.241394 v-17.241394H379.3103333z M362.0689697,327.5862122v17.2413635h17.2413635v-17.2413635H362.0689697z M379.3103333,344.8275757 v17.241394h17.241394v-17.241394H379.3103333z M396.5517273,17.2413788v17.2413788h17.2413635V17.2413788H396.5517273z M413.7930908,34.4827576v17.2413788h17.241394V34.4827576H413.7930908z M396.5517273,51.7241364v17.2413788h17.2413635V51.7241364 H396.5517273z M413.7930908,68.9655151v17.2413788h17.241394V68.9655151H413.7930908z M396.5517273,86.2068939v17.2413788 h17.2413635V86.2068939H396.5517273z M413.7930908,103.4482727v17.2413788h17.241394v-17.2413788H413.7930908z M396.5517273,120.6896515v17.2413788h17.2413635v-17.2413788H396.5517273z M413.7930908,137.9310303v17.2413788h17.241394 v-17.2413788H413.7930908z M396.5517273,155.1724091v17.2413788h17.2413635v-17.2413788H396.5517273z M413.7930908,172.4137878 v17.2413788h17.241394v-17.2413788H413.7930908z M396.5517273,189.6551666v17.2413788h17.2413635v-17.2413788H396.5517273z M413.7930908,206.8965454v17.2413788h17.241394v-17.2413788H413.7930908z M396.5517273,224.1379242v17.2413788h17.2413635 v-17.2413788H396.5517273z M413.7930908,241.379303v17.241394h17.241394v-17.241394H413.7930908z M396.5517273,258.620697 v17.2413635h17.2413635V258.620697H396.5517273z M413.7930908,275.8620605v17.241394h17.241394v-17.241394H413.7930908z M396.5517273,293.1034546v17.2413635h17.2413635v-17.2413635H396.5517273z M413.7930908,310.3448181v17.241394h17.241394 v-17.241394H413.7930908z M396.5517273,327.5862122v17.2413635h17.2413635v-17.2413635H396.5517273z M413.7930908,344.8275757 v17.241394h17.241394v-17.241394H413.7930908z M431.0344849,17.2413788v17.2413788h17.2413635V17.2413788H431.0344849z M448.2758484,34.4827576v17.2413788h17.241394V34.4827576H448.2758484z M431.0344849,51.7241364v17.2413788h17.2413635V51.7241364 H431.0344849z M448.2758484,68.9655151v17.2413788h17.241394V68.9655151H448.2758484z M431.0344849,86.2068939v17.2413788 h17.2413635V86.2068939H431.0344849z M448.2758484,103.4482727v17.2413788h17.241394v-17.2413788H448.2758484z M431.0344849,120.6896515v17.2413788h17.2413635v-17.2413788H431.0344849z M448.2758484,137.9310303v17.2413788h17.241394 v-17.2413788H448.2758484z M431.0344849,155.1724091v17.2413788h17.2413635v-17.2413788H431.0344849z M448.2758484,172.4137878 v17.2413788h17.241394v-17.2413788H448.2758484z M431.0344849,189.6551666v17.2413788h17.2413635v-17.2413788H431.0344849z M448.2758484,206.8965454v17.2413788h17.241394v-17.2413788H448.2758484z M431.0344849,224.1379242v17.2413788h17.2413635 v-17.2413788H431.0344849z M448.2758484,241.379303v17.241394h17.241394v-17.241394H448.2758484z M431.0344849,258.620697 v17.2413635h17.2413635V258.620697H431.0344849z M448.2758484,275.8620605v17.241394h17.241394v-17.241394H448.2758484z M431.0344849,293.1034546v17.2413635h17.2413635v-17.2413635H431.0344849z M448.2758484,310.3448181v17.241394h17.241394 v-17.241394H448.2758484z M431.0344849,327.5862122v17.2413635h17.2413635v-17.2413635H431.0344849z M465.5172424,51.7241364 v17.2413788h17.2413635V51.7241364H465.5172424z M465.5172424,86.2068939v17.2413788h17.2413635V86.2068939H465.5172424z M465.5172424,120.6896515v17.2413788h17.2413635v-17.2413788H465.5172424z M465.5172424,155.1724091v17.2413788h17.2413635 v-17.2413788H465.5172424z M465.5172424,189.6551666v17.2413788h17.2413635v-17.2413788H465.5172424z M465.5172424,224.1379242 v17.2413788h17.2413635v-17.2413788H465.5172424z M465.5172424,258.620697v17.2413635h17.2413635V258.620697H465.5172424z M465.5172424,293.1034546v17.2413635h17.2413635v-17.2413635H465.5172424z"/></g><g id="change1_3"><path d="M500,51.7241364v17.2413788v17.2413788v17.2413788v17.2413788v17.2413788v17.2413788v17.2413788v17.2413788v17.2413788 v17.2413788v17.2413788v17.241394v17.2413635v17.241394v17.2413635v17.241394h-17.241394v-17.241394v-17.2413635v-17.241394 V258.620697v-17.241394v-17.2413788v-17.2413788v-17.2413788v-17.2413788v-17.2413788v-17.2413788v-17.2413788v-17.2413788 V86.2068939V68.9655151V51.7241364H500z M465.5172424,344.8275757h17.2413635v-17.2413635h-17.2413635V344.8275757z M482.758606,51.7241364V34.4827576h-17.2413635v17.2413788H482.758606z M448.2758484,362.0689697h17.241394v-17.241394h-17.241394 V362.0689697z M465.5172424,34.4827576V17.2413788h-17.241394v17.2413788H465.5172424z M413.7930908,362.0689697h-17.2413635 h-17.241394h-17.2413635h-17.241394h-17.2413635h-17.241394h-17.2413635h-17.241394H258.620697h-17.241394h-17.2413788h-17.2413788 h-17.2413788v17.2413635v17.241394v17.2413635v17.241394h-17.2413788v17.2413635h17.2413788v17.241394h17.2413788v-17.241394 v-17.2413635v-17.241394v-17.2413635v-17.241394h17.2413788h17.2413788h17.241394h17.2413635h17.241394h17.2413635h17.241394 h17.2413635h17.241394h17.2413635h17.241394h17.2413635h17.241394h17.2413635v-17.2413635h-17.2413635H413.7930908z M396.5517273,155.1724091h17.2413635v17.2413788v17.2413788v17.2413788v17.2413788h-17.2413635h-17.241394h-17.2413635h-17.241394 v-17.2413788v-17.2413788v-17.2413788v-17.2413788h17.241394h17.2413635H396.5517273z M396.5517273,172.4137878h-17.241394 h-17.2413635v17.2413788v17.2413788h17.2413635h17.241394v-17.2413788V172.4137878z M275.8620605,155.1724091h17.241394v17.2413788 v17.2413788v17.2413788v17.2413788h-17.241394H258.620697h-17.241394h-17.2413788v-17.2413788v-17.2413788v-17.2413788v-17.2413788 h17.2413788h17.241394H275.8620605z M275.8620605,172.4137878H258.620697h-17.241394v17.2413788v17.2413788h17.241394h17.2413635 v-17.2413788V172.4137878z M155.1724091,413.7930908v17.241394h17.2413788v-17.241394H155.1724091z M137.9310303,396.5517273 v17.2413635h17.2413788v-17.2413635H137.9310303z M155.1724091,155.1724091h17.2413788v17.2413788v17.2413788v17.2413788 v17.2413788h-17.2413788h-17.2413788h-17.2413788h-17.2413788v-17.2413788v-17.2413788v-17.2413788v-17.2413788h17.2413788 h17.2413788H155.1724091z M155.1724091,172.4137878h-17.2413788h-17.2413788v17.2413788v17.2413788h17.2413788h17.2413788 v-17.2413788V172.4137878z M120.6896515,379.3103333v17.241394h17.2413788v-17.241394H120.6896515z M103.4482727,362.0689697 H86.2068939H68.9655151v17.2413635h17.2413788h17.2413788h17.2413788v-17.2413635H103.4482727z M103.4482727,17.2413788h17.2413788 h17.2413788h17.2413788h17.2413788h17.2413788h17.2413788h17.2413788h17.2413788h17.241394h17.2413635h17.241394h17.2413635 h17.241394h17.2413635h17.241394h17.2413635h17.241394h17.2413635h17.241394h17.2413635V0h-17.2413635h-17.241394h-17.2413635 h-17.241394h-17.2413635h-17.241394h-17.2413635h-17.241394h-17.2413635h-17.241394H258.620697h-17.241394h-17.2413788h-17.2413788 h-17.2413788h-17.2413788h-17.2413788h-17.2413788h-17.2413788h-17.2413788H86.2068939H68.9655151v17.2413788h17.2413788 H103.4482727z M51.7241364,344.8275757v17.241394h17.2413788v-17.241394H51.7241364z M68.9655151,17.2413788H51.7241364v17.2413788 h17.2413788V17.2413788z M34.4827576,327.5862122v17.2413635h17.2413788v-17.2413635H34.4827576z M51.7241364,34.4827576 H34.4827576v17.2413788h17.2413788V34.4827576z M34.4827576,293.1034546v-17.241394V258.620697v-17.241394v-17.2413788v-17.2413788 v-17.2413788v-17.2413788v-17.2413788v-17.2413788v-17.2413788v-17.2413788V86.2068939V68.9655151V51.7241364H17.2413788 v17.2413788v17.2413788v17.2413788v17.2413788v17.2413788v17.2413788v17.2413788v17.2413788v17.2413788v17.2413788v17.2413788 v17.241394v17.2413635v17.241394v17.2413635v17.241394h17.2413788v-17.241394V293.1034546z"/></g><g id="change1_4"><path opacity="0.3" d="M431.0344849,344.8275757v17.241394h-17.241394h-17.2413635h-17.241394 h-17.2413635h-17.241394h-17.2413635h-17.241394h-17.2413635h-17.241394H258.620697h-17.241394h-17.2413788h-17.2413788 h-17.2413788v-17.241394h17.2413788h17.2413788h17.2413788h17.241394h17.2413635h17.241394h17.2413635h17.241394h17.2413635 h17.241394h17.2413635h17.241394h17.2413635H431.0344849z M362.0689697,241.379303h17.2413635h17.241394v-17.2413788h-17.241394 h-17.2413635h-17.241394v-17.2413788v-17.2413788v-17.2413788h-17.2413635v17.2413788v17.2413788v17.2413788v17.2413788h17.2413635 H362.0689697z M241.379303,241.379303h17.241394h17.2413635v-17.2413788H258.620697h-17.241394h-17.2413788v-17.2413788 v-17.2413788v-17.2413788h-17.2413788v17.2413788v17.2413788v17.2413788v17.2413788h17.2413788H241.379303z M172.4137878,431.0344849h17.2413788v-17.241394h-17.2413788V431.0344849z M155.1724091,396.5517273v17.2413635h17.2413788 v-17.2413635H155.1724091z M137.9310303,379.3103333v17.241394h17.2413788v-17.241394H137.9310303z M120.6896515,362.0689697 v17.2413635h17.2413788v-17.2413635H120.6896515z M103.4482727,344.8275757H86.2068939H68.9655151v17.241394h17.2413788h17.2413788 h17.2413788v-17.241394H103.4482727z M103.4482727,189.6551666v-17.2413788H86.2068939v17.2413788v17.2413788v17.2413788 v17.2413788h17.2413788h17.2413788h17.2413788h17.2413788v-17.2413788h-17.2413788h-17.2413788h-17.2413788v-17.2413788 V189.6551666z M86.2068939,17.2413788H68.9655151v17.2413788h17.2413788V17.2413788z M51.7241364,327.5862122v17.2413635 h17.2413788v-17.2413635H51.7241364z M68.9655151,34.4827576H51.7241364v17.2413788h17.2413788V34.4827576z M51.7241364,293.1034546v-17.241394V258.620697v-17.241394v-17.2413788v-17.2413788v-17.2413788v-17.2413788v-17.2413788 v-17.2413788v-17.2413788v-17.2413788V86.2068939V68.9655151V51.7241364H34.4827576v17.2413788v17.2413788v17.2413788v17.2413788 v17.2413788v17.2413788v17.2413788v17.2413788v17.2413788v17.2413788v17.2413788v17.241394v17.2413635v17.241394v17.2413635 v17.241394h17.2413788v-17.241394V293.1034546z"/></g><g id="change4_2"><path fill="#ffffff" opacity="0.5" d="M482.758606,51.7241364v17.2413788v17.2413788v17.2413788v17.2413788v17.2413788v17.2413788 v17.2413788v17.2413788v17.2413788v17.2413788v17.2413788v17.241394v17.2413635v17.241394v17.2413635v17.241394h-17.2413635 v-17.241394v-17.2413635v-17.241394V258.620697v-17.241394v-17.2413788v-17.2413788v-17.2413788v-17.2413788v-17.2413788 v-17.2413788v-17.2413788v-17.2413788V86.2068939V68.9655151V51.7241364H482.758606z M448.2758484,344.8275757h17.241394 v-17.2413635h-17.241394V344.8275757z M448.2758484,34.4827576v17.2413788h17.241394V34.4827576H448.2758484z M431.0344849,362.0689697h17.2413635v-17.241394h-17.2413635V362.0689697z M431.0344849,17.2413788h-17.241394h-17.2413635 h-17.241394h-17.2413635h-17.241394h-17.2413635h-17.241394h-17.2413635h-17.241394H258.620697h-17.241394h-17.2413788h-17.2413788 h-17.2413788h-17.2413788h-17.2413788h-17.2413788h-17.2413788h-17.2413788H86.2068939v17.2413788h17.2413788h17.2413788 h17.2413788h17.2413788h17.2413788h17.2413788h17.2413788h17.2413788h17.2413788h17.241394h17.2413635h17.241394h17.2413635 h17.241394h17.2413635h17.241394h17.2413635h17.241394h17.2413635h17.241394h17.2413635V17.2413788H431.0344849z M172.4137878,362.0689697v17.2413635v17.241394v17.2413635h17.2413788v-17.2413635v-17.241394v-17.2413635v-17.241394h-17.2413788 V362.0689697z"/></g><g id="change4_3"><path fill="#ffffff" opacity="0.7" d="M396.5517273,172.4137878v17.2413788h-17.241394v-17.2413788H396.5517273z M258.620697,189.6551666h17.2413635v-17.2413788H258.620697V189.6551666z M137.9310303,189.6551666h17.2413788v-17.2413788 h-17.2413788V189.6551666z"/></g></g></svg>