<?xml version="1.0" encoding="UTF-8" standalone="no"?><svg xmlns="http://www.w3.org/2000/svg" xmlns:xlink="http://www.w3.org/1999/xlink" contentScriptType="text/ecmascript" fill="#000000" width="500" zoomAndPan="magnify" contentStyleType="text/css" viewBox="0.0 0.0 500.0 500.0" height="500" preserveAspectRatio="xMidYMid meet" version="1"><g id="change1_1"><path fill="#d1d1d1" d="M209.6,10.7l-18,9.6L159,39.5c0,0-43.8,18.8-44.3,19.2c-0.4,0.3-59.5,46.4-59.5,46.4l-33.7,73L9.2,202.4v109.5 l18.7,8.9l12.2,38.5c0,0,22,48.6,23.2,48.6c1.2,0,53.9,24.8,53.9,23.6c0-1.2,36,31.1,36,31.1l39,28.8l107.6,1.8l7.4-11.4l38.4-25.7 l38.4-12.7l46-32.8c0,0,24-34.4,24-35.5s15.1-30.8,15.1-32S478,315,479.5,315c1.6,0,11.3-5.1,11.3-5.1l-1.6-121.6 c0,0-14.4,1.6-14.4,0s-6.4-42.8-6.4-42.8L393,79.8c0,0-25-29.1-26.2-29.5s-28.1-7.7-29.3-7.7s-20.7-15.1-20.7-15.1l-10-7.2 c0,0-68.8-13.6-70-13.6C235.7,6.7,209.6,10.7,209.6,10.7z"/></g><g id="change2_1"><path d="M173,57.7h-57.7V38.5h38.5V19.2h38.4v19.2H173V57.7z M134.5,442.3v-19.2h-19.2v-19.2H76.9v-19.2H57.7v-38.5H38.4v-38.5H19.2 V192.3h19.2v-38.5h19.2v-38.5h19.2V96.2H96V76.9h19.2V57.7H76.9v19.2H57.7v19.2H38.4v38.4H19.2V173H0v153.8h19.2v38.5h19.2v38.4 h19.2v19.2H96v19.2h19.2v19.2h38.5v-19.2h-19.2V442.3z M307.5,0H192.2v19.2h115.3V0z M480.5,173.1v-38.5h-19.2v-19.2h-19.2V96.2 h-19.2V76.9h-19.2V57.7h-19.2V38.5H346V19.2h-38.5v19.2h19.2v19.2h38.4v19.2h19.2V96h19.2v19.2h19.2v19.2h19.2v19.2h19.2v57.7h19.5 V250v57.7h-19.2v38.5h-19.2v38.5H423v19.2h-19.2v19.2h-19.2v19.2H423v-19.2h19.2v-19.2h19.2v-38.5h19.2v-38.5H500V250v-76.9H480.5z M250.1,480.8h-57.9v-19.2h-38.4v19.2H173V500h80.8l0,0h53.9v-19.2H250.1L250.1,480.8z M327,461.5h-19.2v19.2h38.4v-19.2h38.5v-19.2 H327V461.5z"/></g></svg>