<?xml version="1.0" encoding="UTF-8" standalone="no"?><svg xmlns="http://www.w3.org/2000/svg" xmlns:xlink="http://www.w3.org/1999/xlink" contentScriptType="text/ecmascript" fill="#000000" width="63.3" zoomAndPan="magnify" contentStyleType="text/css" viewBox="0.0 0.1 63.3 65.6" height="65.6" preserveAspectRatio="xMidYMid meet" version="1"><g><g><g id="change1_1"><path fill="#73d3ed" d="M61,32.8c0-1.7-0.2-3.4-0.4-5l2.7-3.9c-1.5-5.3-4.3-10.1-8.1-13.9l-4.7,0.4c-2.6-2.2-5.5-3.9-8.7-5 l-2-4.3c-2.6-0.7-5.3-1-8-1c-2.8,0-5.5,0.3-8.1,1l-2,4.3c-3.2,1.2-6.2,2.9-8.7,5L8.1,10c-3.8,3.9-6.6,8.6-8.1,14l2.7,3.9 c-0.3,1.6-0.4,3.3-0.4,5s0.1,3.4,0.4,5L0,41.8c1.5,5.3,4.3,10.1,8.1,14l4.7-0.4c2.6,2.1,5.5,3.9,8.7,5l2,4.3c2.6,0.7,5.3,1,8.1,1 c2.8,0,5.5-0.3,8-1l2-4.3c3.2-1.2,6.2-2.9,8.7-5l4.7,0.4c3.8-3.9,6.6-8.6,8.1-13.9l-2.7-3.9C60.8,36.2,61,34.6,61,32.8z M31.6,43 c-5.6,0-10.2-4.5-10.2-10.2S26,22.7,31.6,22.7c5.6,0,10.2,4.6,10.2,10.2S37.2,43,31.6,43z"/></g></g></g></svg>