<?xml version="1.0" encoding="UTF-8" standalone="no"?><svg xmlns="http://www.w3.org/2000/svg" xmlns:xlink="http://www.w3.org/1999/xlink" contentScriptType="text/ecmascript" fill="#000000" width="500" zoomAndPan="magnify" contentStyleType="text/css" viewBox="0.0 0.0 500.0 354.8" height="354.8" preserveAspectRatio="xMidYMid meet" version="1"><g id="change1_1"><path fill="#efee97" d="M500,161.29v16.13v16.13v16.13v16.13v16.13v16.12h-16.13v16.13h-16.13v16.13h-16.13v16.13v16.13h-16.13 v16.13h-16.13v16.13h-16.13h-16.13h-16.13h-16.13h-16.12h-16.13h-16.13h-16.13h-16.13h-16.13h-16.13H225.8h-16.13h-16.13h-16.12 h-16.13h-16.13h-16.13H112.9H96.77H80.64v-16.13H64.51v-16.13v-16.13H48.38v-16.13H32.25H16.13v-16.13H0v-16.13v-16.12v-16.13 v-16.13v-16.13v-16.13h16.13v-16.13h16.12h16.13v-16.13h16.13v-16.13V112.9h16.13V96.77h16.13V80.65h16.13h16.13h16.13h16.13h16.13 h16.12h16.13h16.13h16.13V64.52H225.8V48.39h-16.13V32.26V16.13h16.13V0h16.13h16.13h16.13v16.13v16.13v16.13h-16.13v16.13h16.13 h16.13h16.13h16.13h16.13v16.13h16.12h16.13h16.13h16.13h16.13v16.12h16.13v16.13h16.13v16.13v16.13h16.13h16.13v16.13H500z"/></g><g id="change1_2"><path fill="#efee97" d="M467.74,209.68h16.13v16.13v16.13h-16.13v16.12h-16.13v-16.12v-16.13v-16.13v-16.13v-16.13v-16.13h16.13 v16.13v16.13V209.68z M387.09,96.77v16.13h16.13V96.77H387.09z M354.83,338.71h16.13h16.13h16.13v-16.13h16.13v-16.13h16.13v-16.13 v-16.13v-16.13v-16.12v-16.13v-16.13h-16.13v-16.13v-16.13h16.13v-16.13v-16.13v-16.13h-16.13V112.9h-16.13v16.13v16.13v16.13v16.13 v16.13v16.13v16.13v16.13v16.12v16.13h-16.13v16.13v16.13h-16.13h-16.13v16.13V338.71z M241.93,306.45H225.8v-16.13h-16.13h-16.13 h-16.12h-16.13v16.13h-16.13h-16.13v-16.13H112.9v-16.13v-16.13v-16.12v-16.13v-16.13H96.77v-16.13h16.13v-16.13v-16.13v-16.13 v-16.13V112.9h16.13V96.77h16.13h16.13h16.13h16.12h16.13h16.13h16.13h16.13V80.65h16.13h16.13h16.13h16.13v16.12h16.13h16.12h16.13 v16.13v16.13h16.13v16.13v16.13v16.13v16.13h-16.13h-16.13v16.13v16.13h-16.12v16.13h-16.13v16.12v16.13h16.13v-16.13h16.12v-16.12 h16.13v-16.13v-16.13h16.13v16.13v16.13v16.12h-16.13v16.13v16.13h-16.13v16.13h-16.12h-16.13h-16.13h-16.13h-16.13h-16.13H241.93z M177.42,193.55v16.13v16.13v16.13h16.12h16.13v-16.13v-16.13v-16.13v-16.13h-16.13v16.13H177.42z M306.45,241.94v-16.13v-16.13 v-16.13v-16.13h-16.13v16.13h-16.13v16.13v16.13v16.13h16.13H306.45z M129.03,193.55h16.13v-16.13h16.13v-16.13h16.13v-16.13h16.12 v-16.13V112.9h-16.12v16.13h-16.13v16.13h-16.13v16.13h-16.13v16.13V193.55z M80.64,322.58h16.13v16.13h16.13h16.13h16.13h16.13 h16.13h16.12h16.13h16.13h16.13h16.13h16.13h16.13h16.13h16.13v-16.13h-16.13h-16.13h-16.13h-16.13h-16.13H225.8v-16.13h-16.13 h-16.13h-16.12v16.13h-16.13h-16.13h-16.13H112.9v-16.13H96.77v-16.13H80.64v-16.13v-16.13h16.13v-16.12v-16.13H80.64v-16.13v-16.13 v-16.13h16.13v-16.13v-16.13v-16.13V112.9H80.64v16.13v16.13H64.51v16.13v16.13v16.13v16.13v16.13v16.13v16.12v16.13v16.13v16.13 h16.13V322.58z M48.38,241.94v-16.13v-16.13v-16.13v-16.13H32.25v16.13v16.13v16.13H16.13v16.13v16.12h16.12v16.13h16.13v-16.13 V241.94z"/></g><g id="change2_1"><path fill="#f7f7f0" d="M467.74,177.42h16.13v16.13v16.13h-16.13v-16.13V177.42z M419.35,193.55v16.13h16.13v-16.13v-16.13h-16.13 V193.55z M354.83,193.55v16.13v16.13h-16.12v16.13h-16.13v16.12v16.13h16.13v-16.13h16.12v-16.12h16.13v-16.13v-16.13h16.13v-16.13 h-16.13H354.83z M338.71,322.58h-16.13v16.13h16.13h16.12v-16.13H338.71z M241.93,32.26h16.13V16.13h-16.13H225.8v16.13H241.93z M145.16,177.42h16.13v-16.13h16.13v-16.13h16.12v-16.13V112.9h-16.12v16.13h-16.13v16.13h-16.13v16.13h-16.13v16.13v16.13h16.13 V177.42z M80.64,274.19v16.13h16.13v-16.13v-16.13H80.64V274.19z M32.25,209.68v-16.13H16.13v16.13v16.13h16.12V209.68z"/></g><g id="change3_1"><path d="M483.87,161.29v-16.13h-16.13h-16.13v-16.13V112.9h-16.13V96.77h-16.13V80.65h-16.13h-16.13h-16.13h-16.13h-16.12V64.52 h-16.13h-16.13h-16.13h-16.13h-16.13V48.39h16.13V32.26V16.13V0h-16.13h-16.13H225.8v16.13h16.13h16.13v16.13h-16.13H225.8V16.13 h-16.13v16.13v16.13h16.13v16.13h16.13v16.13H225.8h-16.13h-16.13h-16.12h-16.13h-16.13h-16.13H112.9H96.77v16.12H80.64v16.13h16.13 v16.13v16.13v16.13v16.13H80.64v16.13v16.13v16.13h16.13v16.13v16.12v16.13v16.13v16.13h16.13v16.13h16.13h16.13h16.13h16.13v-16.13 h16.12h16.13h16.13v-16.13h-16.13h-16.13h-16.12h-16.13v16.13h-16.13h-16.13v-16.13H112.9v-16.13v-16.13v-16.12v-16.13v-16.13H96.77 v-16.13h16.13v-16.13v-16.13v-16.13v-16.13V112.9h16.13V96.77h16.13h16.13h16.13h16.12h16.13h16.13h16.13h16.13V80.65h16.13h16.13 h16.13h16.13v16.12h16.13h16.12h16.13v16.13v16.13h16.13v16.13v16.13v16.13v16.13v16.13v16.13v16.13v16.12h-16.13v16.13v16.13 h-16.13v16.13h16.13h16.13v-16.13v-16.13h16.13v-16.13v-16.12v-16.13v-16.13v-16.13v-16.13v-16.13v-16.13v-16.13V112.9h-16.13V96.77 h16.13v16.13h16.13v16.13h16.13v16.13v16.13v16.13v16.13v16.13v16.13v16.13v16.12v16.13v16.13v16.13h-16.13v16.13h-16.13v16.13 h-16.13h-16.13h-16.13h-16.12h-16.13h-16.13h-16.13h-16.13h-16.13h-16.13H225.8h-16.13h-16.13h-16.12h-16.13h-16.13h-16.13H112.9 H96.77v-16.13H80.64v-16.13H64.51v16.13v16.13h16.13v16.13h16.13h16.13h16.13h16.13h16.13h16.13h16.12h16.13h16.13h16.13h16.13 h16.13h16.13h16.13h16.13h16.13h16.12h16.13h16.13h16.13h16.13v-16.13h16.13v-16.13h16.13v-16.13v-16.13h16.13v-16.13h16.13v-16.13 H500v-16.12v-16.13v-16.13v-16.13v-16.13v-16.13H483.87z M483.87,193.55v16.13v16.13v16.13h-16.13v16.12h-16.13v-16.12v-16.13 v-16.13v-16.13v-16.13v-16.13h16.13v16.13h16.13V193.55z M306.45,225.81v16.13h-16.13h-16.13v-16.13v-16.13v-16.13h16.13v-16.13 h16.13v16.13v16.13V225.81z M225.8,322.58v-16.13h16.13h16.13h16.13h16.13h16.13h16.13h16.13h16.12v16.13h-16.12h-16.13h-16.13 h-16.13h-16.13h-16.13h-16.13H225.8z M177.42,209.68v-16.13h16.12v-16.13h16.13v16.13v16.13v16.13v16.13h-16.13h-16.12v-16.13 V209.68z M80.64,145.16H64.51v-16.13V112.9h16.13v16.13V145.16z M64.51,274.19v-16.13v-16.12v-16.13v-16.13v-16.13v-16.13v-16.13 v-16.13H48.38v16.13H32.25H16.13v16.13H0v16.13v16.13v16.13v16.13v16.12v16.13h16.13v16.13h16.12h16.13v16.13h16.13v-16.13V274.19z M32.25,274.19v-16.13H16.13v-16.12v-16.13v-16.13v-16.13h16.12v-16.13h16.13v16.13v16.13v16.13v16.13v16.12v16.13H32.25z"/></g></svg>