<?xml version="1.0" encoding="UTF-8" standalone="no"?><svg xmlns="http://www.w3.org/2000/svg" xmlns:xlink="http://www.w3.org/1999/xlink" contentScriptType="text/ecmascript" fill="#000000" width="1249.5" zoomAndPan="magnify" contentStyleType="text/css" viewBox="3.1 2.0 1249.5 187.0" height="187" preserveAspectRatio="xMidYMid meet" version="1"><g fill="#000000" id="change1_1"><path fill="inherit" d="M1216.3,2.1c-39,0-77.9,0-116.9,0c0,11.8,0,23.7,0,35.5c38.9,0,77.9,0,116.8,0 C1216.3,25.7,1216.3,13.9,1216.3,2.1z"/><path fill="inherit" d="M1099.4,37.6C1099.4,37.6,1099.4,37.6,1099.4,37.6C1099.4,37.5,1099.4,37.5,1099.4,37.6 C1099.4,37.6,1099.4,37.6,1099.4,37.6C1099.4,37.6,1099.4,37.6,1099.4,37.6L1099.4,37.6z"/><path fill="inherit" d="M151.8,2.1c-38.3,0-76.7,0-115,0c0,11.8,0,23.7,0,35.5c38.3,0,76.6,0,115,0 C151.8,25.7,151.8,13.9,151.8,2.1z"/><path fill="inherit" d="M421.8,2.1c-38.3,0-76.7,0-115,0c0,11.8,0,23.7,0,35.5c38.3,0,76.6,0,115,0 C421.8,25.7,421.8,13.9,421.8,2.1z"/><path fill="inherit" d="M306.8,37.5C306.8,37.5,306.8,37.5,306.8,37.5L306.8,37.5C306.8,37.6,306.8,37.6,306.8,37.5 C306.8,37.6,306.8,37.6,306.8,37.5C306.8,37.6,306.8,37.6,306.8,37.5z"/><path fill="inherit" d="M421.9,37.6C421.9,37.6,421.9,37.6,421.9,37.6C421.8,37.5,421.8,37.5,421.9,37.6 C421.8,37.6,421.8,37.6,421.9,37.6C421.8,37.6,421.8,37.6,421.9,37.6z"/><path fill="inherit" d="M947.5,37.5c0-11.8,0-23.7,0-35.5c-37.7,0-75.4,0-113.1,0c0,11.8,0,23.7,0,35.5c13.5,0,27,0.1,40.6,0.1 C899.1,37.6,923.3,37.6,947.5,37.5z"/><path fill="inherit" d="M681.8,37.5c0-11.8,0-23.7,0-35.5c-36.9,0-73.8,0-110.6,0c0,11.8,0,23.7,0,35.5c24.1,0,48.3,0.1,72.4,0.1 C656.4,37.6,669.1,37.6,681.8,37.5z"/><path fill="inherit" d="M571.2,37.5C571.2,37.5,571.2,37.5,571.2,37.5L571.2,37.5C571.2,37.6,571.2,37.5,571.2,37.5 C571.2,37.6,571.2,37.6,571.2,37.5C571.2,37.6,571.2,37.6,571.2,37.5C571.2,37.6,571.2,37.6,571.2,37.5z"/><path fill="inherit" d="M36.8,153.4C36.8,153.4,36.8,153.4,36.8,153.4C36.8,153.4,36.8,153.4,36.8,153.4 C36.8,153.4,36.8,153.4,36.8,153.4C36.8,153.4,36.8,153.4,36.8,153.4z"/><path fill="inherit" d="M3.1,37.6c0,38.6,0,77.2,0,115.9c11.2,0,22.5,0,33.7,0c0-38.6,0-77.2,0-115.8C25.5,37.6,14.3,37.6,3.1,37.6 z"/><path fill="inherit" d="M267.8,37.5c-2.4,0-2.9,0.8-2.9,3c0.1,36.6,0.1,73.3,0,109.9c0,2.2,0.4,3.1,2.9,3c13-0.1,26-0.1,39-0.1 c0-38.6,0-77.2,0-115.8C293.8,37.6,280.8,37.6,267.8,37.5z"/><path fill="inherit" d="M306.8,153.4C306.8,153.4,306.8,153.4,306.8,153.4C306.8,153.4,306.8,153.4,306.8,153.4L306.8,153.4 C306.8,153.4,306.8,153.4,306.8,153.4C306.8,153.4,306.8,153.4,306.8,153.4C306.8,153.4,306.8,153.4,306.8,153.4L306.8,153.4z"/><path fill="inherit" d="M681.9,37.6C681.9,37.6,681.9,37.6,681.9,37.6C681.9,37.5,681.9,37.5,681.9,37.6 C681.8,37.6,681.8,37.6,681.9,37.6C681.9,37.6,681.9,37.6,681.9,37.6z"/><path fill="inherit" d="M720.3,37.5c-12.8,0.1-25.6,0.1-38.4,0.1c0,38.6,0,77.2,0,115.8c12.8,0,25.6-0.1,38.4,0.1 c2.4,0,2.9-0.8,2.9-3c-0.1-36.6-0.1-73.3,0-109.9C723.2,38.3,722.7,37.5,720.3,37.5z"/><path fill="inherit" d="M533.4,37.5c-2.4,0-2.9,0.8-2.9,3c0.1,36.6,0.1,73.3,0,109.9c0,2.2,0.4,3.1,2.9,3 c12.6-0.1,25.2-0.1,37.8-0.1c0-38.6,0-77.2,0-115.8C558.6,37.6,546,37.6,533.4,37.5z"/><path fill="inherit" d="M187.7,37.5c-12,0.1-23.9,0.1-35.9,0.1c0,38.6,0,77.2,0,115.8c12,0,23.9-0.1,35.9,0.1c2.4,0,2.9-0.8,2.9-3 c-0.1-36.6-0.1-73.3,0-109.9C190.6,38.3,190.2,37.5,187.7,37.5z"/><path fill="inherit" d="M834.4,37.5C834.4,37.5,834.4,37.5,834.4,37.5C834.4,37.6,834.4,37.6,834.4,37.5 C834.4,37.6,834.4,37.6,834.4,37.5C834.4,37.6,834.4,37.6,834.4,37.5z"/><path fill="inherit" d="M834.4,153.4C834.4,153.4,834.4,153.4,834.4,153.4C834.4,153.4,834.4,153.4,834.4,153.4 C834.4,153.4,834.4,153.4,834.4,153.4C834.4,153.4,834.4,153.4,834.4,153.4L834.4,153.4z"/><path fill="inherit" d="M800.3,37.5c-2.4,0-2.9,0.8-2.9,3c0.1,36.6,0.1,73.3,0,109.9c0,2.2,0.4,3.1,2.9,3c11.3-0.1,22.7-0.1,34-0.1 c0-38.6,0-77.2,0-115.8C823,37.6,811.7,37.6,800.3,37.5z"/><path fill="inherit" d="M1099.4,153.4C1099.4,153.4,1099.4,153.4,1099.4,153.4L1099.4,153.4 C1099.4,153.4,1099.4,153.4,1099.4,153.4z"/><path fill="inherit" d="M1065.4,37.5c-2.4,0-2.9,0.8-2.9,3c0.1,36.6,0.1,73.3,0,109.9c0,2.2,0.4,3.1,2.9,3 c11.3-0.1,22.7-0.1,34-0.1c0-38.6,0-77.2,0-115.8C1088,37.6,1076.7,37.6,1065.4,37.5z"/><path fill="inherit" d="M1252.6,40.5c0-2.2-0.4-3.1-2.9-3c-11.1,0.1-22.3,0.1-33.4,0.1c0,38.6,0,77.2,0,115.8 c11.1,0,22.3-0.1,33.4,0.1c2.4,0,2.9-0.8,2.9-3C1252.5,113.8,1252.5,77.2,1252.6,40.5z"/><path fill="inherit" d="M1099.4,153.4C1099.4,153.4,1099.4,153.4,1099.4,153.4C1099.4,153.4,1099.4,153.4,1099.4,153.4 C1099.4,153.4,1099.4,153.4,1099.4,153.4z"/><path fill="inherit" d="M1099.4,186.1c0,2.1,0.5,2.9,2.8,2.9c37.1-0.1,74.3-0.1,111.4,0c2.3,0,2.8-0.8,2.8-2.9 c-0.1-10.9-0.1-21.7-0.1-32.6c-38.9,0-77.9,0-116.8,0C1099.4,164.3,1099.5,175.2,1099.4,186.1z"/><path fill="inherit" d="M980.3,37.5c-10.9,0.1-21.8,0.1-32.8,0.1c0,38.6,0,77.2,0,115.8c10.9,0,21.8-0.1,32.8,0.1 c2.4,0,2.9-0.8,2.9-3c-0.1-36.6-0.1-73.3,0-109.9C983.2,38.3,982.7,37.5,980.3,37.5z"/><path fill="inherit" d="M36.8,185.7c0,2.3,0.5,3.2,3.1,3.2c36.3-0.1,72.6-0.1,108.9,0c2.6,0,3.1-0.8,3.1-3.2 c-0.1-10.8-0.1-21.5-0.1-32.3c-38.3,0-76.6,0-115,0C36.8,164.2,36.9,175,36.8,185.7z"/><path fill="inherit" d="M306.8,186.1c0,2.1,0.5,2.9,2.8,2.9c36.5-0.1,73-0.1,109.5,0c2.3,0,2.8-0.8,2.8-2.9 c-0.1-10.9-0.1-21.7-0.1-32.6c-38.3,0-76.6,0-115,0C306.8,164.3,306.9,175.2,306.8,186.1z"/><path fill="inherit" d="M421.8,153.4C421.8,153.4,421.8,153.4,421.8,153.4C421.8,153.4,421.8,153.4,421.8,153.4 C421.9,153.4,421.9,153.4,421.8,153.4C421.8,153.4,421.8,153.4,421.8,153.4L421.8,153.4z"/><path fill="inherit" d="M947.5,153.4C947.5,153.4,947.5,153.4,947.5,153.4C947.5,153.4,947.5,153.4,947.5,153.4 C947.5,153.4,947.5,153.4,947.5,153.4C947.5,153.4,947.5,153.4,947.5,153.4z"/><path fill="inherit" d="M834.4,153.4c0,10.9,0,21.7-0.1,32.6c0,2.1,0.5,2.9,2.8,2.9c35.9-0.1,71.8-0.1,107.7,0 c2.3,0,2.8-0.8,2.8-2.9c-0.1-10.9-0.1-21.7-0.1-32.6c-24.2,0-48.4-0.1-72.5-0.1C861.4,153.4,847.9,153.4,834.4,153.4z"/><path fill="inherit" d="M453.4,37.5c-10.5,0.1-21,0.1-31.5,0.1c0,38.6,0,77.2,0,115.8c10.5,0,21-0.1,31.5,0.1c2.4,0,2.9-0.8,2.9-3 c-0.1-36.6-0.1-73.3,0-109.9C456.3,38.3,455.8,37.5,453.4,37.5z"/><path fill="inherit" d="M681.8,153.4C681.9,153.4,681.9,153.4,681.8,153.4C681.9,153.4,681.9,153.4,681.8,153.4 C681.9,153.4,681.9,153.4,681.8,153.4C681.8,153.4,681.8,153.4,681.8,153.4z"/><path fill="inherit" d="M571.2,153.4c0,10.9,0,21.7-0.1,32.6c0,2.1,0.5,2.9,2.8,2.9c35.1-0.1,70.1-0.1,105.2,0 c2.3,0,2.8-0.8,2.8-2.9c-0.1-10.9-0.1-21.7-0.1-32.6c-12.7,0-25.4-0.1-38.1-0.1C619.5,153.4,595.4,153.4,571.2,153.4z"/></g><g fill="#f3f4f7" id="change2_1"><ellipse rx="81.4" ry="82" fill="inherit" cx="94.3" cy="95.5"/><ellipse rx="81.4" ry="82" fill="inherit" cx="364.3" cy="95.5"/><path fill="inherit" d="M834.4,37.5c0,38.6,0,77.3,0,115.9c13.5,0,27.1-0.1,40.6-0.1c0-38.6,0-77.1,0-115.7 C861.4,37.6,847.9,37.6,834.4,37.5z"/><path fill="inherit" d="M571.2,153.4c24.2,0,48.3-0.1,72.5-0.1c0-38.6,0-77.1,0-115.7c-24.2,0-48.3-0.1-72.5-0.1 C571.2,76.2,571.2,114.8,571.2,153.4z"/></g><g fill="#61d5f3" id="change3_1"><ellipse rx="82.7" ry="81.9" fill="inherit" cx="1157.8" cy="95.5"/><path fill="inherit" d="M875,37.6c0,38.6,0,77.1,0,115.7c24.2,0,48.4,0.1,72.6,0.1c0-38.6,0-77.3,0-115.9 C923.3,37.6,899.2,37.6,875,37.6z"/><path fill="inherit" d="M643.7,37.6c0,38.6,0,77.1,0,115.7c12.7,0,25.5,0.1,38.2,0.1c0-38.6,0-77.3,0-115.9 C669.1,37.6,656.4,37.6,643.7,37.6z"/></g></svg>