<?xml version="1.0" encoding="UTF-8" standalone="no"?><svg xmlns="http://www.w3.org/2000/svg" xmlns:xlink="http://www.w3.org/1999/xlink" contentScriptType="text/ecmascript" fill="#000000" width="245.1" zoomAndPan="magnify" contentStyleType="text/css" viewBox="0.0 0.0 245.1 274.5" height="274.5" preserveAspectRatio="xMidYMid meet" version="1"><g id="change1_1"><path fill="#000000" d="M9.8,68.62H0v-9.8h9.8h9.81h9.8h9.81v-9.8v-9.81h9.8v-9.8V19.6V9.8V0h9.8v9.8v9.8v9.81h9.81v9.8h9.8v9.81 h9.81v9.8h9.8h9.8v9.8h-9.8h-9.8v9.81h-9.81v9.8h-9.8v9.81v9.8v9.8v9.81h-9.81v-9.81v-9.8v-9.8h-9.8v-9.81h-9.8v-9.8h-9.81v-9.81 h-9.8H9.8z M98.04,205.88v-9.8h-9.8h-9.81v-9.81v-9.8h-9.8v-9.81v-9.8h-9.81v9.8v9.81v9.8h-9.8v9.81h-9.8h-9.81h-9.8H9.8v9.8h9.81 h9.8v9.8h9.81v9.81v9.8h9.8v9.81v9.8v9.8v9.81h9.8v-9.81v-9.8v-9.8h9.81v-9.81v-9.8h9.8v-9.81h9.81h9.8h9.8h9.81v-9.8h-9.81H98.04z M235.3,107.84h-9.81h-9.8v-9.8h-9.81v-9.81h-9.8v-9.8v-9.81v-9.8v-9.8h-9.8v9.8v9.8v9.81h-9.81v9.8h-9.8v9.81v9.8h-9.81v9.8h-9.8 h-9.8h-9.81v9.81h9.81h9.8h9.8h9.81v9.8h9.8v9.81v9.8v9.8h9.81v9.81v9.8h9.8v-9.8v-9.81v-9.8v-9.8v-9.81h9.8v-9.8h9.81v-9.81h9.8 h9.81h9.8v-9.8H235.3z"/></g></svg>