<?xml version="1.0" encoding="UTF-8" standalone="no"?><svg xmlns="http://www.w3.org/2000/svg" xmlns:xlink="http://www.w3.org/1999/xlink" contentScriptType="text/ecmascript" fill="#000000" width="394.7" zoomAndPan="magnify" contentStyleType="text/css" viewBox="0.0 0.0 394.7 500.0" height="500" preserveAspectRatio="xMidYMid meet" version="1"><g><g id="change1_1"><path d="M197.581604,499.788147v-26.1071472c0-0.1166687-0.0951691-0.211853-0.211853-0.211853h-6.3718414v-26.098877 c0-0.1166687-0.0951538-0.211853-0.2118378-0.211853h-6.3643951v-26.1079712c0-0.1166687-0.0951538-0.211853-0.2118378-0.211853 h-6.3635559v-65.5777893c0-0.1166687-0.0951691-0.211853-0.211853-0.211853h-6.3726654v-19.523468 c0-0.1166687-0.0951538-0.211853-0.2118378-0.211853h-6.5754089c-0.116684,0-0.2118378,0.0951843-0.2118378,0.211853v6.3718262 h-12.9472504c-0.1166687,0-0.2118378,0.0951843-0.2118378,0.211853v6.3635559h-6.3635712 c-0.1166687,0-0.2118378,0.0951843-0.2118378,0.211853v6.3643799h-6.3726654c-0.116684,0-0.2118378,0.0951843-0.2118378,0.211853 v6.3718262h-6.3643951c-0.116684,0-0.2118378,0.0951843-0.2118378,0.211853v6.3643799h-12.9472504 c-0.1166763,0-0.2118378,0.0951843-0.2118378,0.211853v6.3718262h-6.3635635c-0.116684,0-0.2118454,0.0951843-0.2118454,0.211853 v6.3635559h-6.16082v-32.4715271h6.3726654c0.1166763,0,0.2118378-0.0951843,0.2118378-0.211853v-13.1590881 c0-0.1166687-0.0951614-0.211853-0.2118378-0.211853h-6.3726654v-6.3635559c0-0.1166687-0.0951691-0.211853-0.2118454-0.211853 H92.1094742c-0.116684,0-0.2118454,0.0951843-0.2118454,0.211853v6.3635559H65.7896423 c-0.1166763,0-0.2118454,0.0951843-0.2118454,0.211853v6.3718262H39.4706421c-0.1166801,0-0.2118454,0.0951843-0.2118454,0.211853 v6.3635559H6.7872491v-6.1517029h6.3718381c0.1166792,0,0.2118425-0.0951843,0.2118425-0.211853v-12.9472351h6.3643913 c0.1166782,0,0.2118416-0.0951843,0.2118416-0.211853v-6.3726501h6.3726673c0.1166782,0,0.2118416-0.0951843,0.2118416-0.211853 v-12.9397888h6.3635616c0.1166801,0,0.2118454-0.0951843,0.2118454-0.211853v-6.3718262h6.3635635 c0.1166763,0,0.2118416-0.0951843,0.2118416-0.211853v-12.9472351h6.3718376c0.1166801,0,0.2118454-0.0951843,0.2118454-0.211853 v-6.3643799h6.3635597c0.1166801,0,0.2118454-0.0951843,0.2118454-0.211853v-6.3635559h6.3726654 c0.1166801,0,0.2118416-0.0951843,0.2118416-0.211853V263.37146h6.3635635c0.1166763,0,0.2118454-0.0951843,0.2118454-0.211853 v-12.9472504h6.3643875c0.1166763,0,0.2118454-0.0951538,0.2118454-0.2118378v-13.1599121 c0-0.116684-0.0951691-0.211853-0.2118454-0.211853H59.4260788v-6.3643799c0-0.116684-0.0951614-0.211853-0.2118416-0.211853 H46.2661667v-6.3635559c0-0.116684-0.0951653-0.2118378-0.2118454-0.2118378H33.1070786v-6.3718414 c0-0.116684-0.0951653-0.211853-0.2118454-0.211853H13.3709297v-6.3635559c0-0.116684-0.0951633-0.2118378-0.2118425-0.2118378 H6.7872491v-6.3726654c0-0.116684-0.0951638-0.211853-0.211843-0.211853H0.2118429v-6.1517181h12.9472446 c0.1166792,0,0.2118425-0.0951691,0.2118425-0.2118378v-6.3643951h12.9489002c0.1166782,0,0.2118416-0.0951691,0.2118416-0.2118378 v-6.3718414h6.3635616c0.1166801,0,0.2118454-0.0951691,0.2118454-0.2118378v-6.3635712h6.3635635 c0.1166763,0,0.2118416-0.0951538,0.2118416-0.2118378v-6.3718414h12.9472427c0.1166801,0,0.2118454-0.0951691,0.2118454-0.2118378 v-6.3643951h6.3726654c0.1166801,0,0.2118416-0.0951691,0.2118416-0.2118378v-6.3635712h6.3635635 c0.1166763,0,0.2118454-0.0951538,0.2118454-0.2118378v-6.5845032c0-0.116684-0.0951691-0.211853-0.2118454-0.211853h-6.3635635 v-12.9472351c0-0.116684-0.0951614-0.211853-0.2118416-0.211853h-6.3726654v-6.3635559 c0-0.116684-0.0951653-0.211853-0.2118454-0.211853h-6.3635597v-19.5242996c0-0.1166763-0.0951653-0.2118378-0.2118454-0.2118378 h-6.3718376V98.6850815c0-0.1166763-0.0951653-0.2118378-0.2118416-0.2118378h-6.3635635v-6.3635635 c0-0.116684-0.0951653-0.2118454-0.2118454-0.2118454h-6.3635616V79.1616058h39.0461273v6.3635635 c0,0.1166763,0.0951691,0.2118454,0.2118454,0.2118454h12.9480743v6.3726654c0,0.1166763,0.0951614,0.2118378,0.2118378,0.2118378 h19.5234833v6.3635635c0,0.116684,0.0951614,0.2118454,0.2118378,0.2118454h13.1599197 c0.1166763,0,0.2118378-0.0951614,0.2118378-0.2118454v-19.735321c0-0.1166763-0.0951614-0.2118378-0.2118378-0.2118378h-6.3726654 V59.2144432c0-0.1166801-0.0951691-0.2118416-0.2118454-0.2118416h-6.3635635V39.4791222 c0-0.1166801-0.0951614-0.2118416-0.2118454-0.2118416H92.321312V13.3719645h6.1517258v6.3635626 c0,0.1166801,0.0951614,0.2118435,0.2118378,0.2118435h6.3635635v6.3718376c0,0.1166801,0.0951614,0.2118435,0.2118454,0.2118435 h6.3726654v6.3635635c0,0.1166801,0.0951614,0.2118416,0.2118454,0.2118416h6.3635635v6.3726654 c0,0.1166801,0.0951614,0.2118454,0.2118378,0.2118454h6.3718414v6.3635597c0,0.1166801,0.0951614,0.2118454,0.2118378,0.2118454 h6.3635712v6.3643913c0,0.1166763,0.0951538,0.2118416,0.2118378,0.2118416h12.9488983v6.3718376 c0,0.1166801,0.0951691,0.2118416,0.2118378,0.2118416h6.3635712v6.3635635c0,0.1166763,0.0951691,0.2118454,0.2118378,0.2118454 h6.3635712v6.3635635c0,0.1166763,0.0951538,0.2118378,0.2118378,0.2118378h13.1590881 c0.116684,0,0.2118378-0.0951614,0.2118378-0.2118378V46.2663727h6.3726654c0.116684,0,0.211853-0.0951653,0.211853-0.2118454 V33.1064568h6.3635559c0.116684,0,0.2118378-0.0951614,0.2118378-0.2118416V13.3719645h6.3643951 c0.116684,0,0.2118378-0.0951643,0.2118378-0.2118435V6.7957311h6.3718414c0.116684,0,0.211853-0.0951638,0.211853-0.211843 V0.2120498h6.1517181v6.3718381c0,0.1166792,0.0951538,0.211843,0.2118378,0.211843h6.3726654V19.735527 c0,0.1166801,0.0951691,0.2118435,0.2118378,0.2118435h6.3635712v19.5317516c0,0.1166801,0.0951691,0.2118454,0.2118378,0.2118454 h6.3635712v6.3635597c0,0.1166801,0.0951538,0.2118454,0.2118378,0.2118454h6.3726654v19.5234756 c0,0.1166763,0.0951691,0.2118454,0.2118378,0.2118454h6.5754089c0.116684,0,0.211853-0.0951691,0.211853-0.2118454v-6.3635635 h6.3718262c0.116684,0,0.211853-0.0951614,0.211853-0.2118416v-6.3718376h6.3635559 c0.116684,0,0.2118378-0.0951653,0.2118378-0.2118416v-6.3643913h6.3643951c0.1166687,0,0.211853-0.0951653,0.211853-0.2118454 v-6.3635597h6.3726501c0.1166992,0,0.211853-0.0951653,0.211853-0.2118454v-6.3726654h6.3635559 c0.1166687,0,0.211853-0.0951614,0.211853-0.2118416v-6.3635635h6.3718262c0.1166992,0,0.211853-0.0951633,0.211853-0.2118435 v-6.3718376h6.3635559c0.1166687,0,0.211853-0.0951633,0.211853-0.2118435v-6.3635626h6.1517029v65.5777969 c0,0.116684,0.0951843,0.2118454,0.211853,0.2118454h6.3726807v6.3635635c0,0.1166763,0.0951538,0.2118454,0.2118225,0.2118454 h6.5754089c0.1166687,0,0.211853-0.0951691,0.211853-0.2118454v-6.3635635h6.3726501 c0.1166992,0,0.211853-0.0951614,0.211853-0.2118454V72.577095h19.523468c0.1166992,0,0.211853-0.0951614,0.211853-0.2118378 v-6.3635635h26.098877c0.1166687,0,0.211853-0.0951691,0.211853-0.2118454v-6.3635635h19.523468 c0.1166687,0,0.211853-0.0951614,0.211853-0.2118416v-6.3718376h6.1608276v12.7353973h-6.3726807 c-0.1166687,0-0.211853,0.0951691-0.211853,0.2118454v12.9480743h-6.3643799c-0.1166687,0-0.211853,0.0951614-0.211853,0.2118378 v12.9480743h-6.3635559c-0.1166687,0-0.2118225,0.0951614-0.2118225,0.2118454v6.3635635h-6.3718567 c-0.1166687,0-0.211853,0.0951614-0.211853,0.2118378v12.9472504h-6.3635559c-0.1166687,0-0.2118225,0.0951614-0.2118225,0.2118378 v6.3643951h-6.3726807c-0.1166687,0-0.211853,0.0951614-0.211853,0.2118378v6.3718414h-6.3635559 c-0.1166687,0-0.211853,0.0951614-0.211853,0.2118454v12.9397888h-6.3635559c-0.1166687,0-0.2118225,0.0951691-0.2118225,0.211853 v6.3718262h-6.3726807c-0.1166687,0-0.211853,0.0951691-0.211853,0.211853v6.5754089 c0,0.1166687,0.0951843,0.2118378,0.211853,0.2118378h6.3726807v6.3726654c0,0.116684,0.0951538,0.2118378,0.2118225,0.2118378 h6.3635559v6.3635712c0,0.1166687,0.0951843,0.2118378,0.211853,0.2118378h12.9480896v6.3643951 c0,0.1166687,0.0951538,0.2118378,0.2118225,0.2118378h26.098877v6.3718414c0,0.116684,0.0951843,0.2118378,0.211853,0.2118378 h12.9480896v6.3635712c0,0.1166687,0.0951538,0.2118378,0.2118225,0.2118378h6.3718567v6.1599884h-6.3718567 c-0.1166687,0-0.2118225,0.0951691-0.2118225,0.211853v6.3643799h-6.3635864c-0.1166687,0-0.2118225,0.0951691-0.2118225,0.211853 v6.3635559h-6.3726807c-0.1166687,0-0.211853,0.0951691-0.211853,0.211853v6.3726654h-6.3643799 c-0.1166687,0-0.211853,0.0951538-0.211853,0.2118378v6.3635559h-6.3635559c-0.1166687,0-0.2118225,0.0951691-0.2118225,0.211853 v6.3718414h-6.3718567c-0.1166687,0-0.211853,0.0951538-0.211853,0.2118378v6.3635559h-19.523468 c-0.1166687,0-0.211853,0.0951691-0.211853,0.211853v6.3643799h-6.3635559c-0.1166687,0-0.2118225,0.0951691-0.2118225,0.211853 v13.1599121c0,0.116684,0.0951538,0.2118378,0.2118225,0.2118378h6.3635559v12.9472504 c0,0.1166687,0.0951843,0.211853,0.211853,0.211853h6.3635559v12.9480591c0,0.1166687,0.0951843,0.211853,0.211853,0.211853 h6.3726807v6.3635559c0,0.1166687,0.0951538,0.211853,0.2118225,0.211853h6.3635559v6.3643799 c0,0.1166687,0.0951843,0.211853,0.211853,0.211853h6.3718567v12.9472351c0,0.1166687,0.0951538,0.211853,0.2118225,0.211853 h6.3635559v6.3718262c0,0.1166687,0.0951843,0.211853,0.211853,0.211853h6.3643799v6.3643799 c0,0.1166687,0.0951843,0.211853,0.211853,0.211853h6.3726807v12.9480591c0,0.1166687,0.0951538,0.211853,0.2118225,0.211853 h6.3635864v6.3635559c0,0.1166687,0.0951538,0.211853,0.2118225,0.211853h6.3718567v6.1599731h-25.8961487v-6.3718262 c0-0.1166687-0.0951843-0.211853-0.211853-0.211853h-26.1071472v-6.3635559c0-0.1166687-0.0951843-0.211853-0.211853-0.211853 h-19.523468v-6.3726501c0-0.1166687-0.0951843-0.211853-0.211853-0.211853h-26.098877v-6.3635559 c0-0.1166687-0.0951538-0.211853-0.211853-0.211853h-13.1599121c-0.1166687,0-0.211853,0.0951843-0.211853,0.211853v6.3635559 h-6.3635559c-0.1166687,0-0.2118225,0.0951843-0.2118225,0.211853v19.7435913c0,0.1166687,0.0951538,0.211853,0.2118225,0.211853 h6.3635559v39.046936h-6.1517029v-6.3635559c0-0.1166687-0.0951538-0.211853-0.211853-0.211853h-6.3718262v-12.9480591 c0-0.1166687-0.0951843-0.211853-0.211853-0.211853h-6.3635559v-6.3718262c0-0.1166687-0.0951538-0.211853-0.211853-0.211853 h-6.3726501v-6.3643799c0-0.1166687-0.0951843-0.211853-0.211853-0.211853h-6.3643951v-6.3635559 c0-0.1166687-0.0951538-0.211853-0.2118378-0.211853h-13.1590881c-0.116684,0-0.2118378,0.0951843-0.2118378,0.211853v12.9397888 h-6.3635712c-0.1166687,0-0.2118378,0.0951843-0.2118378,0.211853v32.6825562h-6.3726654 c-0.116684,0-0.2118378,0.0951843-0.2118378,0.211853v39.2670593h-6.3635712c-0.1166687,0-0.2118378,0.0951843-0.2118378,0.211853 v45.835022h-6.3635712c-0.1166687,0-0.2118378,0.0951843-0.2118378,0.211853v26.1071472H197.581604z"/></g><g id="change2_1"><path fill="#61d5f3" d="M374.9959106 184.2100525L368.420105 184.2100525 361.844696 184.2100525 361.844696 177.6346436 355.2605896 177.6346436 348.684967 177.6346436 342.1008911 177.6346436 342.1008911 171.0505524 335.5252686 171.0505524 335.5252686 164.4749298 328.949646 164.4749298 322.3655701 164.4749298 322.3655701 157.8993225 315.7899475 157.8993225 309.214325 157.8993225 309.214325 151.3152313 309.214325 144.7396088 315.7899475 144.7396088 315.7899475 138.1555176 315.7899475 131.5799103 322.3655701 131.5799103 322.3655701 125.0042953 328.949646 125.0042953 328.949646 118.4201965 328.949646 111.8445816 335.5252686 111.8445816 335.5252686 105.2604904 342.1008911 105.2604904 342.1008911 98.6848755 348.684967 98.6848755 348.684967 92.1092682 355.2605896 92.1092682 355.2605896 85.5251694 355.2605896 78.9497604 361.844696 78.9497604 361.844696 72.3656693 368.420105 72.3656693 368.420105 65.7898483 361.844696 65.7898483 355.2605896 65.7898483 355.2605896 72.3656693 348.684967 72.3656693 342.1008911 72.3656693 335.5252686 72.3656693 335.5252686 78.9497604 328.949646 78.9497604 322.3655701 78.9497604 322.3655701 85.5251694 315.7899475 85.5251694 309.214325 85.5251694 309.214325 92.1092682 302.630249 92.1092682 296.0546265 92.1092682 289.4705505 92.1092682 282.894928 92.1092682 276.3193054 92.1092682 276.3193054 85.5251694 276.3193054 78.9497604 276.3193054 72.3656693 276.3193054 65.7898483 276.3193054 59.2144432 276.3193054 52.6303482 276.3193054 46.0547371 276.3193054 39.4791222 269.7352295 39.4791222 269.7352295 46.0547371 263.1598206 46.0547371 263.1598206 52.6303482 256.5757141 52.6303482 256.5757141 59.2144432 249.9998932 59.2144432 249.9998932 65.7898483 243.4244843 65.7898483 243.4244843 72.3656693 236.8403931 72.3656693 236.8403931 78.9497604 230.2647858 78.9497604 230.2647858 85.5251694 223.6806946 85.5251694 223.6806946 78.9497604 223.6806946 72.3656693 223.6806946 65.7898483 223.6806946 59.2144432 223.6806946 52.6303482 217.105072 52.6303482 210.5294647 52.6303482 210.5294647 46.0547371 210.5294647 39.4791222 210.5294647 32.8950272 210.5294647 26.319416 203.9453735 26.319416 203.9453735 19.735321 203.9453735 13.159708 197.369751 13.159708 197.369751 19.735321 190.7856598 19.735321 190.7856598 26.319416 190.7856598 32.8950272 190.7856598 39.4791222 184.2100525 39.4791222 184.2100525 46.0547371 184.2100525 52.6303482 177.6344299 52.6303482 177.6344299 59.2144432 177.6344299 65.7898483 177.6344299 72.3656693 177.6344299 78.9497604 171.0503387 78.9497604 171.0503387 85.5251694 164.4747314 85.5251694 157.890625 85.5251694 157.890625 78.9497604 151.3150177 78.9497604 151.3150177 72.3656693 144.7396088 72.3656693 144.7396088 65.7898483 138.1555176 65.7898483 131.5796967 65.7898483 131.5796967 59.2144432 125.0042953 59.2144432 125.0042953 52.6303482 118.4201965 52.6303482 118.4201965 46.0547371 111.8445816 46.0547371 111.8445816 39.4791222 105.2604904 39.4791222 105.2604904 46.0547371 105.2604904 52.6303482 105.2604904 59.2144432 111.8445816 59.2144432 111.8445816 65.7898483 111.8445816 72.3656693 118.4201965 72.3656693 118.4201965 78.9497604 118.4201965 85.5251694 118.4201965 92.1092682 118.4201965 98.6848755 118.4201965 105.2604904 118.4201965 111.8445816 111.8445816 111.8445816 105.2604904 111.8445816 105.2604904 105.2604904 98.6848755 105.2604904 92.1092682 105.2604904 92.1092682 98.6848755 85.5251694 98.6848755 78.9495544 98.6848755 78.9495544 92.1092682 72.3654633 92.1092682 65.7898483 92.1092682 59.2142372 92.1092682 59.2142372 85.5251694 52.6301422 85.5251694 46.0545273 85.5251694 39.4704323 85.5251694 39.4704323 92.1092682 46.0545273 92.1092682 46.0545273 98.6848755 46.0545273 105.2604904 46.0545273 111.8445816 52.6301422 111.8445816 52.6301422 118.4201965 59.2142372 118.4201965 59.2142372 125.0042953 65.7898483 125.0042953 65.7898483 131.5799103 65.7898483 138.1555176 72.3654633 138.1555176 72.3654633 144.7396088 72.3654633 151.3152313 78.9495544 151.3152313 78.9495544 157.8993225 78.9495544 164.4749298 72.3654633 164.4749298 72.3654633 171.0505524 65.7898483 171.0505524 59.2142372 171.0505524 59.2142372 177.6346436 52.6301422 177.6346436 46.0545273 177.6346436 46.0545273 184.2100525 39.4704323 184.2100525 39.4704323 190.7941437 32.8948212 190.7941437 32.8948212 197.3699646 26.319416 197.3699646 19.735321 197.3699646 19.735321 203.9453735 26.319416 203.9453735 32.8948212 203.9453735 32.8948212 210.5294647 39.4704323 210.5294647 46.0545273 210.5294647 46.0545273 217.1052856 52.6301422 217.1052856 59.2142372 217.1052856 59.2142372 223.6893768 65.7898483 223.6893768 65.7898483 230.2647858 72.3654633 230.2647858 78.9495544 230.2647858 78.9495544 236.8406067 85.5251694 236.8406067 85.5251694 243.4242859 92.1092682 243.4242859 92.1092682 250.0001068 85.5251694 250.0001068 85.5251694 256.5759277 78.9495544 256.5759277 78.9495544 263.1596069 78.9495544 269.7354126 72.3654633 269.7354126 72.3654633 276.319519 65.7898483 276.319519 65.7898483 282.894928 65.7898483 289.4707336 59.2142372 289.4707336 59.2142372 296.0548401 52.6301422 296.0548401 52.6301422 302.630249 46.0545273 302.630249 46.0545273 309.214325 39.4704323 309.214325 39.4704323 315.7901611 39.4704323 322.3655701 32.8948212 322.3655701 32.8948212 328.949646 26.319416 328.949646 26.319416 335.5254822 32.8948212 335.5254822 39.4704323 335.5254822 39.4704323 328.949646 46.0545273 328.949646 52.6301422 328.949646 59.2142372 328.949646 59.2142372 322.3655701 65.7898483 322.3655701 72.3654633 322.3655701 78.9495544 322.3655701 78.9495544 315.7901611 85.5251694 315.7901611 92.1092682 315.7901611 98.6848755 315.7901611 98.6848755 309.214325 105.2604904 309.214325 111.8445816 309.214325 111.8445816 302.630249 118.4201965 302.630249 118.4201965 309.214325 118.4201965 315.7901611 118.4201965 322.3655701 118.4201965 328.949646 118.4201965 335.5254822 118.4201965 342.1095886 118.4201965 348.684967 118.4201965 355.2608032 125.0042953 355.2608032 125.0042953 348.684967 131.5796967 348.684967 138.1555176 348.684967 138.1555176 342.1095886 138.1555176 335.5254822 144.7396088 335.5254822 151.3150177 335.5254822 151.3150177 328.949646 157.890625 328.949646 157.890625 322.3655701 164.4747314 322.3655701 171.0503387 322.3655701 171.0503387 315.7901611 177.6344299 315.7901611 177.6344299 309.214325 184.2100525 309.214325 184.2100525 315.7901611 184.2100525 322.3655701 184.2100525 328.949646 184.2100525 335.5254822 184.2100525 342.1095886 184.2100525 348.684967 190.7856598 348.684967 190.7856598 355.2608032 190.7856598 361.8444824 190.7856598 368.4202881 190.7856598 375.0043945 190.7856598 381.5798035 190.7856598 388.1556091 190.7856598 394.7397156 190.7856598 401.3151245 190.7856598 407.899231 190.7856598 414.4750366 197.369751 414.4750366 197.369751 421.0504456 197.369751 427.634552 197.369751 434.2103577 203.9453735 434.2103577 203.9453735 427.634552 203.9453735 421.0504456 210.5294647 421.0504456 210.5294647 414.4750366 210.5294647 407.899231 210.5294647 401.3151245 210.5294647 394.7397156 217.105072 394.7397156 217.105072 388.1556091 217.105072 381.5798035 217.105072 375.0043945 217.105072 368.4202881 223.6806946 368.4202881 223.6806946 361.8444824 223.6806946 355.2608032 223.6806946 348.684967 223.6806946 342.1095886 223.6806946 335.5254822 223.6806946 328.949646 223.6806946 322.3655701 223.6806946 315.7901611 230.2647858 315.7901611 236.8403931 315.7901611 236.8403931 322.3655701 243.4244843 322.3655701 243.4244843 328.949646 249.9998932 328.949646 256.5757141 328.949646 256.5757141 335.5254822 256.5757141 342.1095886 263.1598206 342.1095886 263.1598206 348.684967 263.1598206 355.2608032 269.7352295 355.2608032 269.7352295 348.684967 269.7352295 342.1095886 269.7352295 335.5254822 269.7352295 328.949646 269.7352295 322.3655701 269.7352295 315.7901611 269.7352295 309.214325 269.7352295 302.630249 263.1598206 302.630249 263.1598206 296.0548401 269.7352295 296.0548401 276.3193054 296.0548401 282.894928 296.0548401 282.894928 302.630249 289.4705505 302.630249 296.0546265 302.630249 296.0546265 309.214325 302.630249 309.214325 309.214325 309.214325 315.7899475 309.214325 322.3655701 309.214325 322.3655701 315.7901611 328.949646 315.7901611 328.949646 322.3655701 335.5252686 322.3655701 342.1008911 322.3655701 348.684967 322.3655701 348.684967 328.949646 355.2605896 328.949646 361.844696 328.949646 368.420105 328.949646 368.420105 335.5254822 374.9959106 335.5254822 374.9959106 328.949646 374.9959106 322.3655701 368.420105 322.3655701 368.420105 315.7901611 361.844696 315.7901611 361.844696 309.214325 355.2605896 309.214325 355.2605896 302.630249 355.2605896 296.0548401 348.684967 296.0548401 348.684967 289.4707336 342.1008911 289.4707336 342.1008911 282.894928 335.5252686 282.894928 335.5252686 276.319519 335.5252686 269.7354126 328.949646 269.7354126 328.949646 263.1596069 328.949646 256.5759277 322.3655701 256.5759277 322.3655701 250.0001068 322.3655701 243.4242859 315.7899475 243.4242859 315.7899475 236.8406067 315.7899475 230.2647858 322.3655701 230.2647858 328.949646 230.2647858 328.949646 223.6893768 335.5252686 223.6893768 335.5252686 217.1052856 342.1008911 217.1052856 342.1008911 210.5294647 348.684967 210.5294647 355.2605896 210.5294647 355.2605896 203.9453735 361.844696 203.9453735 368.420105 203.9453735 368.420105 197.3699646 374.9959106 197.3699646 374.9959106 190.7941437 381.5800171 190.7941437 381.5800171 184.2100525z"/></g><g id="change3_1"><path fill="#f7f7f0" d="M105.2604904,138.1555176v6.5840912v6.5756226v6.5840912h-6.5756149v-6.5840912h-6.5756073v-6.5756226 v-6.5840912v-6.5756073h6.5756073v6.5756073H105.2604904z M78.9495544,118.4201965v-6.5756149h-6.5840912v-6.5840912h-6.5756149 h-6.5756111v6.5840912h6.5756111v6.5756149h6.5756149v6.5840988v6.5756149h6.5840912h6.5756149v-6.5756149h-6.5756149V118.4201965z"/></g><g id="change1_2"><path d="M368.420105,328.949646v6.5758362h-6.5754089h-6.5841064h-6.5756226h-6.5840759v-6.5758362h-6.5756226h-6.5756226 h-6.5840759v-6.5840759h-6.5756226h-6.5756226h-6.5840759h-6.5756226v-6.5754089h-6.5840759h-6.5756226v6.5754089h-6.5756226 v6.5840759v6.5758362v6.5841064h6.5756226v6.5753784v6.5758362v6.5836792v6.5758057v6.5841064v6.5754089h-6.5756226v-6.5754089 h-6.5840759v-6.5841064v-6.5758057h-6.5754089v-6.5836792h6.5754089v-6.5758362v-6.5753784v-6.5841064v-6.5758362v-6.5840759 v-6.5754089v-6.5758362v-6.5840759h-6.5754089v-6.5754089h6.5754089h6.5840759h6.5756226v6.5754089h6.5756226h6.5840759v6.5840759 h6.5756226h6.5840759h6.5756226h6.5756226v6.5758362h6.5840759v6.5754089h6.5756226h6.5756226h6.5840759v6.5840759h6.5756226 h6.5841064H368.420105z M368.420105,65.7898483v6.5758209h-6.5754089v6.5840912h-6.5841064v6.5754089v6.5840988h-6.5756226 v6.5756073h-6.5840759v6.5756149h-6.5756226v6.5840912h-6.5756226v6.5756149v6.5840988h-6.5840759v6.5756149h-6.5756226v6.5756073 v6.5840912h-6.5756226v6.5756226v6.5840912h6.5756226h6.5756226v6.5756073h6.5840759h6.5756226v-6.5756073h-6.5756226v-6.5840912 h-6.5840759v-6.5756226h6.5840759v-6.5840912h6.5756226v-6.5756073v-6.5756149h6.5756226v-6.5840988h6.5840759v-6.5756149 h6.5756226v-6.5840912v-6.5756149h6.5841064v-6.5756073h6.5754089v-6.5840988v-6.5754089h6.5758057v-6.5840912v-6.5758209 h6.5841064v-6.5754051v-6.584095h-6.5841064v6.584095h-6.5758057h-6.5754089h-6.5841064v6.5754051h6.5841064H368.420105z M328.949646,236.8406067h6.5756226v-6.5758209h6.5756226h6.5840759h6.5756226v-6.5754089h6.5841064v-6.5840912h6.5754089 v-6.5758209h6.5758057v-6.5840912h6.5841064v-6.5754089h6.5754089v-6.5758209h6.5840759v-6.5840912h-6.5840759v-6.5754089 h-6.5754089h-6.5841064v-6.5840912h-6.5758057h-6.5754089h-6.5841064h-6.5756226v-6.5756226h-6.5840759h-6.5756226v6.5756226 h6.5756226v6.5840912h6.5840759h6.5756226h6.5841064v6.5754089h6.5754089h6.5758057h6.5841064v6.5840912h-6.5841064v6.5758209 h-6.5758057v6.5754089h-6.5754089h-6.5841064v6.5840912h-6.5756226h-6.5840759v6.5758209h-6.5756226v6.5840912h-6.5756226 v6.5754089h-6.5840759h-6.5756226v6.5758209v6.5836792h6.5756226v6.5758209v6.5758209h6.5840759v6.5836792v6.5758057h6.5756226 v6.5841064v6.5754089h6.5756226v6.5758057h6.5840759v6.5841064h6.5756226v6.5754089v6.5840759h6.5841064v6.5758362h6.5754089 v6.5754089h6.5758057v6.5840759v6.5758362h-6.5758057v6.5841064h6.5758057h6.5841064h6.5754089h6.5840759v-6.5841064h-6.5840759 v-6.5758362h-6.5754089v-6.5840759v-6.5754089h-6.5841064v-6.5758362h-6.5758057v-6.5840759h-6.5754089v-6.5754089v-6.5841064 h-6.5841064v-6.5758057h-6.5756226v-6.5754089h-6.5840759v-6.5841064v-6.5758057h-6.5756226v-6.5836792v-6.5758209h-6.5756226 v-6.5758209V236.8406067z M263.1598206,342.1095886h-6.5841064v-6.5841064v-6.5758362h-6.5758209h-6.5754089v-6.5840759h-6.5840912 v-6.5754089h-6.5756073h-6.5840912v6.5754089v6.5840759v6.5758362v6.5841064v6.5753784v6.5758362v6.5836792v6.5758057h-6.5756226 v6.5841064v6.5754089v6.5758057v6.5841064h-6.5756073v6.5754089v6.5841064v6.5758057v6.5754089h-6.5840912v6.5841064v6.5758057 h-6.5756226v-6.5758057v-6.5841064v-6.5754089h-6.5840912v-6.5758057v-6.5841064v-6.5754089v-6.5841064v-6.5758057v-6.5754089 v-6.5841064v-6.5758057v-6.5836792v-6.5758362h-6.5756073v-6.5753784v-6.5841064v-6.5758362v-6.5840759v-6.5754089v-6.5758362 h-6.5756226v6.5758362h-6.5840912v6.5754089h-6.5756073h-6.5841064v6.5840759h-6.5756073v6.5758362h-6.5754089h-6.5840912 v6.5841064v6.5753784h-6.5758209h-6.5754013v6.5758362h-6.5840988v-6.5758362v-6.5753784v-6.5841064v-6.5758362v-6.5840759 v-6.5754089v-6.5758362v-6.5840759h-6.5756149v6.5840759h-6.5840912h-6.5756149v6.5758362h-6.5756073h-6.5840988h-6.5756149 v6.5754089h-6.5840912h-6.5756149h-6.5756111v6.5840759h-6.584095h-6.5756149h-6.584095v6.5758362h-6.5756111H26.319416v-6.5758362 h6.5754051v-6.5840759h6.5756111v-6.5754089v-6.5758362h6.584095v-6.5840759h6.5756149v-6.5754089h6.584095v-6.5841064h6.5756111 v-6.5758057v-6.5754089h6.5756149v-6.5841064h6.5840912v-6.5758057v-6.5836792h6.5756149v-6.5758209h6.5840988v-6.5758209 h-6.5840988v-6.5836792h-6.5756149v-6.5758209h-6.5840912h-6.5756149v-6.5754089h-6.5756111v-6.5840912h-6.584095h-6.5756149 v-6.5758209h-6.584095h-6.5756111v-6.5840912H26.319416h-6.584095v-6.5754089h6.584095h6.5754051v-6.5758209h6.5756111v-6.5840912 h6.584095v-6.5754089h6.5756149h6.584095v-6.5840912h6.5756111h6.5756149v-6.5756226h6.5840912v-6.5756073v-6.5840912h-6.5840912 v-6.5756226v-6.5840912h-6.5756149v-6.5756073v-6.5756149h-6.5756111v-6.5840988h-6.584095v-6.5756149h-6.5756149v6.5756149 v6.5840988v6.5756149h6.5756149v6.5756073h6.584095v6.5840912v6.5756226h6.5756111v6.5840912h-6.5756111v6.5756073h-6.584095 v6.5756226h-6.5756149h-6.584095v6.5840912h-6.5756111v6.5754089H26.319416v6.5840912h-6.584095h-6.57582v6.5758209h-6.584095H0 v6.5754089h6.5754061v6.5840912h6.584095v6.5758209h6.57582h6.584095h6.5754051v6.5840912h6.5756111h6.584095v6.5754089h6.5756149 h6.584095v6.5758209h6.5756111h6.5756149v6.5836792v6.5758209h-6.5756149v6.5758209v6.5836792h-6.5756111v6.5758057v6.5841064 h-6.584095v6.5754089h-6.5756149v6.5758057h-6.584095v6.5841064v6.5754089h-6.5756111v6.5840759H26.319416v6.5758362v6.5754089 h-6.584095v6.5840759h-6.57582v6.5758362v6.5841064h-6.584095v6.5753784h6.584095h6.57582h6.584095h6.5754051h6.5756111v-6.5753784 h6.584095h6.5756149h6.584095h6.5756111v-6.5841064h6.5756149h6.5840912h6.5756149h6.5840988v-6.5758362h6.5756073h6.5756149 v6.5758362h6.5840912v6.5841064v6.5753784h-6.5840912v6.5758362v6.5836792v6.5758057v6.5841064v6.5754089h6.5840912v-6.5754089 h6.5756149v-6.5841064h6.5840988h6.5754013v-6.5758057h6.5758209v-6.5836792h6.5840912v-6.5758362h6.5754089v-6.5753784h6.5756073 h6.5841064v-6.5841064h6.5756073v6.5841064v6.5753784v6.5758362h6.5840912v6.5836792v6.5758057v6.5841064v6.5754089v6.5758057 v6.5841064v6.5754089v6.5841064v6.5758057v6.5754089h6.5756226v6.5841064v6.5758057v6.5754089v6.5841064h6.5756073v6.5758057 v6.5841064v6.5753784v6.5758362h6.5840912v6.5836792v6.5758057v6.5841064V500h6.5756226h6.5840912v-6.5754089v-6.5841064 v-6.5758057v-6.5836792h6.5756073v-6.5758362v-6.5753784v-6.5841064v-6.5758057v-6.5841064v-6.5754089v-6.5758057h6.5756226 v-6.5841064v-6.5754089v-6.5758057v-6.5841064v-6.5754089v-6.5841064h6.5840912v-6.5758057v-6.5754089v-6.5841064v-6.5758057 v-6.5836792h6.5756073v-6.5758362v-6.5753784h6.5840912h6.5754089v6.5753784h6.5758209v6.5758362h6.5841064v-6.5758362V342.1095886 z M105.2604904,46.0547371v-6.5756149h6.5840912v6.5756149h6.5756149v6.5756111h6.5840988v6.584095h6.5754013v6.5754051h6.5758209 h6.5840912v6.5758209h6.5754089v6.5840912h6.5756073v6.5754089h6.5841064h6.5756073v-6.5754089h6.5840912v-6.5840912v-6.5758209 v-6.5754051v-6.584095h6.5756226v-6.5756111v-6.5756149h6.5756073v-6.584095V26.319416v-6.584095h6.5840912v-6.575613h6.5756226 v6.575613v6.584095h6.5840912v6.5756111v6.584095v6.5756149v6.5756111h6.5756073h6.5756226v6.584095v6.5754051v6.5758209v6.5840912 v6.5754089h6.5840912v-6.5754089h6.5756073v-6.5840912h6.5840912v-6.5758209h6.5754089v-6.5754051h6.5758209v-6.584095h6.5841064 v-6.5756111h6.5754089v-6.5756149h6.5840759v6.5756149v6.5756111v6.584095v6.5754051v6.5758209v6.5840912v6.5754089v6.5840988 h6.5756226h6.5756226h6.5840759h6.5756226h6.5840759v-6.5840988h6.5756226h6.5756226v-6.5754089h6.5840759h6.5756226v-6.5840912 h6.5756226h6.5840759h6.5756226v-6.5758209h-6.5756226h-6.5840759h-6.5756226h-6.5756226v6.5758209h-6.5840759h-6.5756226 h-6.5756226v6.5840912h-6.5840759v6.5754089h-6.5756226v-6.5754089h-6.5840759v-6.5840912v-6.5758209v-6.5754051v-6.584095 v-6.5756111v-6.5756149v-6.584095V26.319416v-6.584095v-6.575613h-6.5756226v6.575613h-6.5756226v6.584095h-6.5840759v6.5756111 h-6.5754089v6.584095h-6.5841064v6.5756149h-6.5758209v6.5756111h-6.5754089v6.584095h-6.5840912v6.5754051h-6.5756073v-6.5754051 v-6.584095v-6.5756111h-6.5840912v-6.5756149h-6.5756226v-6.584095V26.319416v-6.584095h-6.5756073v-6.575613V6.584095h-6.5840912 V0h-6.5756226v6.584095h-6.5840912v6.575613h-6.5756073v6.575613v6.584095v6.5756111h-6.5756226v6.584095v6.5756149h-6.5840912 v6.5756111v6.584095v6.5754051v6.5758209h-6.5756073h-6.5841064v-6.5758209h-6.5756073v-6.5754051h-6.5754089v-6.584095h-6.5840912 h-6.5758209v-6.5756111h-6.5754013v-6.5756149h-6.5840988v-6.584095h-6.5756149V26.319416h-6.5840912v-6.584095h-6.5756149 v-6.575613h-6.5756073v6.575613v6.584095v6.5756111v6.584095h6.5756073v6.5756149v6.5756111v6.584095h6.5756149v-6.584095 V46.0547371z M85.5251694,98.6848755h6.5840988v6.5756149h6.5756073h6.5756149v6.5840912h6.5840912h6.5756149v-6.5840912 v-6.5756149v-6.5756073v-6.5840988v-6.5754089v-6.5840912h-6.5756149v-6.5758209v-6.5754051h-6.5840912v6.5754051v6.5758209 v6.5840912h6.5840912v6.5754089v6.5840988v6.5756073h-6.5840912h-6.5756149v-6.5756073h-6.5756073h-6.5840988h-6.5756149v6.5756073 H85.5251694z M46.0545273,98.6848755v-6.5756073h-6.584095v-6.5840988h6.584095h6.5756149h6.584095v6.5840988h6.5756111h6.5756149 h6.5840912v-6.5840988h-6.5840912h-6.5756149v-6.5754089h-6.5756111h-6.584095h-6.5756149h-6.584095h-6.5756111H26.319416 v6.5754089v6.5840988h6.5754051v6.5756073h6.5756111v6.5756149v6.5840912h6.584095v-6.5840912V98.6848755z"/></g></g></svg>